<?xml version="1.0" standalone="no"?>
<!DOCTYPE svg PUBLIC "-//W3C//DTD SVG 20010904//EN"
 "http://www.w3.org/TR/2001/REC-SVG-20010904/DTD/svg10.dtd">
<svg version="1.0" xmlns="http://www.w3.org/2000/svg"
 width="3557.000000pt" height="2000.000000pt" viewBox="0 0 3557.000000 2000.000000"
 preserveAspectRatio="xMidYMid meet">

<g transform="translate(0.000000,2000.000000) scale(0.100000,-0.100000)"
fill="#000000" stroke="none">
<path d="M0 19885 c0 -103 2 -115 18 -116 9 0 81 -1 159 -2 79 -1 143 -5 143
-9 0 -4 11 -3 24 1 17 7 28 5 40 -7 10 -9 16 -12 15 -7 -3 21 2 24 27 15 18
-7 23 -7 18 2 -5 7 -1 9 13 6 15 -4 24 3 37 27 20 36 52 55 95 55 25 0 32 8
57 58 16 31 32 59 37 60 4 2 7 10 7 18 0 12 -54 14 -345 14 l-345 0 0 -115z"/>
<path d="M713 19911 c-45 -79 -50 -92 -37 -108 18 -24 18 -94 0 -118 -16 -22
-13 -31 59 -150 23 -38 53 -90 67 -115 14 -25 51 -90 83 -145 160 -276 430
-745 449 -780 12 -22 24 -42 27 -45 3 -3 11 -15 18 -27 8 -16 21 -23 40 -23
32 0 77 -31 86 -60 6 -20 18 -20 763 -20 746 0 757 0 770 20 7 11 22 20 35 20
23 0 29 11 504 836 73 128 133 239 133 248 0 9 4 16 9 16 5 0 12 7 15 16 3 8
2 12 -4 9 -10 -6 -12 5 -13 53 -1 22 -2 23 -14 6 -10 -14 -13 -15 -13 -3 0 8
6 21 13 29 10 12 9 12 -4 2 -18 -13 -53 -6 -43 9 3 5 10 7 15 4 5 -4 9 -1 9 5
0 7 -7 10 -15 7 -8 -4 -17 -2 -20 3 -3 5 -12 7 -20 3 -11 -3 -13 -1 -9 10 7
18 31 29 47 21 7 -3 2 3 -10 14 -17 15 -19 22 -10 31 9 9 8 11 -4 6 -10 -4
-20 -1 -25 6 -4 8 -3 10 4 5 7 -4 12 -2 12 3 0 6 -9 11 -20 11 -11 0 -20 4
-20 9 0 5 8 7 19 4 11 -3 21 2 24 11 4 10 0 14 -14 11 -10 -2 -19 0 -19 6 0 5
6 9 13 10 6 1 1 5 -13 9 l-25 8 27 1 c14 1 29 -5 31 -11 3 -8 6 -6 6 5 1 9 -6
17 -15 17 -8 0 -12 5 -9 11 4 6 13 8 21 5 10 -4 14 2 13 17 0 12 -3 16 -6 10
-2 -7 -9 -13 -14 -13 -6 0 -7 5 -4 10 3 6 0 10 -7 11 -7 1 -2 4 11 8 22 6 50
51 32 51 -5 0 -11 -9 -14 -21 -4 -13 -10 -18 -17 -14 -9 6 -9 10 1 16 8 5 10
9 5 9 -5 0 -3 7 4 15 7 8 16 13 20 10 5 -3 11 -1 14 4 7 10 25 9 44 -3 9 -6
11 -1 8 18 -3 17 1 29 11 35 53 29 -8 31 -1485 31 l-1488 0 -51 -89z m3008 59
c-13 -11 -17 -20 -10 -20 7 0 10 -3 6 -6 -10 -10 -26 6 -21 21 5 12 19 19 44
24 3 0 -6 -9 -19 -19z m-111 -300 c0 -5 -2 -10 -4 -10 -3 0 -8 5 -11 10 -3 6
-1 10 4 10 6 0 11 -4 11 -10z"/>
<path d="M4030 19996 c0 -2 7 -9 15 -16 13 -11 14 -10 9 4 -5 14 -24 23 -24
12z"/>
<path d="M4082 19980 c0 -14 2 -19 5 -12 2 6 2 18 0 25 -3 6 -5 1 -5 -13z"/>
<path d="M4108 19993 c6 -3 10 -8 7 -13 -3 -4 2 -10 10 -14 10 -3 15 1 15 12
0 11 -8 18 -22 19 -13 0 -17 -1 -10 -4z"/>
<path d="M4156 19992 c-3 -5 2 -21 10 -37 11 -21 11 -25 1 -16 -8 6 -17 8 -20
4 -11 -10 13 -32 28 -27 9 4 12 0 9 -13 -4 -14 1 -19 21 -21 37 -3 48 -11 36
-26 -6 -7 -7 -17 -3 -21 4 -5 0 -4 -8 1 -24 14 -40 13 -40 -2 0 -17 17 -18 23
-1 3 7 6 4 6 -6 1 -10 5 -16 10 -13 5 3 11 -3 14 -15 4 -14 2 -18 -6 -11 -20
15 -46 11 -39 -7 4 -10 7 -11 10 -3 2 7 8 12 13 12 6 0 7 -4 4 -10 -4 -7 212
-10 640 -10 l645 0 11 23 c14 31 45 50 94 57 36 5 43 3 73 -28 39 -42 44 -103
12 -145 l-20 -25 221 -384 c122 -211 283 -489 357 -618 158 -275 168 -290 191
-290 25 0 51 -32 51 -61 0 -34 -27 -69 -53 -69 -12 0 -27 -8 -33 -17 -16 -27
-719 -1244 -733 -1271 -10 -19 -10 -30 -1 -53 15 -35 6 -89 -19 -116 -43 -46
-148 -32 -174 24 l-10 23 -720 0 -720 0 -31 -36 c-25 -29 -40 -37 -70 -39 -45
-3 -44 -2 -91 -90 -21 -38 -41 -74 -45 -80 -11 -14 -87 -145 -533 -920 -107
-186 -110 -191 -111 -255 -1 -36 -5 -71 -10 -79 -7 -11 -5 -13 8 -8 12 5 16 2
14 -11 -2 -9 3 -16 10 -15 14 3 16 -13 3 -22 -6 -3 -8 -14 -6 -25 2 -12 0 -18
-6 -14 -6 3 -8 9 -5 12 3 3 0 12 -8 21 -16 18 -23 51 -14 66 4 6 -12 11 -40
12 -31 1 -52 8 -62 20 -17 19 -54 43 -67 43 -5 0 -1 -5 7 -10 13 -8 12 -10 -2
-10 -10 0 -18 7 -18 15 0 8 -5 15 -12 15 -17 0 -3 10 21 15 14 2 26 -3 33 -15
11 -18 13 -17 23 13 7 23 19 35 43 43 34 11 21 -10 637 1054 158 274 147 249
129 274 -18 26 -18 86 0 112 13 19 10 29 -43 120 -32 54 -119 205 -193 334
-75 129 -211 366 -304 525 -92 160 -174 302 -183 317 -9 16 -24 28 -33 28 -10
0 -27 9 -38 20 -20 20 -33 20 -774 20 -743 0 -755 0 -761 -20 -10 -30 -54 -60
-90 -60 -26 0 -35 -5 -45 -29 -6 -16 -19 -37 -28 -47 -10 -11 -32 -49 -50 -86
-18 -38 -38 -68 -43 -68 -6 0 -8 -4 -4 -9 3 -6 -1 -13 -9 -18 -8 -4 -15 -12
-15 -18 0 -22 -56 -105 -68 -101 -7 3 -10 -1 -7 -9 8 -19 -28 -94 -44 -95 -7
0 -10 -5 -7 -10 3 -6 -3 -22 -14 -36 -12 -15 -21 -33 -21 -40 0 -8 -8 -22 -18
-32 -10 -10 -30 -42 -46 -72 -41 -78 -50 -94 -57 -100 -4 -3 -26 -41 -49 -85
-23 -44 -48 -87 -55 -95 -6 -8 -19 -28 -27 -45 -26 -53 -53 -100 -59 -105 -4
-3 -9 -15 -13 -28 -4 -12 -12 -20 -17 -17 -5 4 -9 -3 -9 -14 0 -12 -5 -21 -12
-21 -6 0 -9 -3 -5 -6 3 -4 -5 -21 -18 -38 -13 -17 -24 -34 -24 -38 -1 -5 -1
-10 -2 -13 0 -3 -1 -31 -1 -62 -1 -64 4 -80 42 -138 15 -22 32 -55 40 -72 7
-18 16 -33 20 -33 5 0 13 -12 19 -27 12 -29 42 -84 51 -93 3 -3 14 -24 25 -47
11 -24 24 -43 28 -43 5 0 6 -4 3 -8 -3 -5 6 -21 20 -37 13 -15 24 -33 24 -39
0 -6 15 -34 33 -62 19 -28 37 -57 40 -65 4 -8 15 -27 26 -44 10 -16 28 -48 41
-70 23 -42 86 -150 101 -175 5 -8 17 -31 27 -50 9 -19 26 -48 36 -63 20 -30
43 -70 73 -127 10 -19 20 -37 23 -40 3 -3 11 -16 18 -30 38 -74 41 -77 84 -83
43 -6 88 -42 88 -71 0 -9 12 -13 38 -11 26 1 39 -3 44 -14 6 -14 7 -14 7 1 1
15 18 16 161 16 130 0 158 -3 150 -13 -8 -10 -8 -15 0 -20 7 -4 14 1 17 13 4
18 14 20 136 20 91 0 134 -3 139 -11 6 -9 8 -9 8 -1 0 8 24 12 66 13 40 0 63
-3 59 -9 -4 -6 2 -7 18 -1 13 5 104 9 203 10 152 0 181 -3 197 -17 17 -15 17
-15 11 1 -9 24 31 23 46 0 11 -17 11 -17 6 -1 -5 15 2 17 57 16 34 0 56 -3 48
-6 -11 -3 -9 -9 7 -21 22 -16 21 -16 -11 -16 -19 1 -31 6 -30 13 2 6 -4 9 -12
6 -8 -4 -13 -9 -10 -13 2 -4 -54 -9 -125 -10 -86 -1 -130 2 -130 8 0 6 -5 11
-11 11 -5 0 -7 -5 -4 -10 9 -14 -125 -10 -144 4 -11 8 -13 8 -7 -2 6 -10 -20
-12 -120 -11 -80 0 -122 4 -113 10 11 7 11 9 -3 9 -10 0 -18 -4 -18 -10 0 -5
-18 -10 -40 -10 -29 0 -40 4 -40 15 0 8 -4 15 -10 15 -5 0 -7 -7 -4 -15 4 -10
0 -15 -15 -15 -12 0 -21 5 -21 11 0 8 -4 8 -12 1 -16 -12 -200 -13 -192 -1 3
5 12 9 20 9 8 0 14 5 14 10 0 6 -14 3 -31 -6 -17 -8 -28 -11 -25 -6 4 6 2 13
-4 17 -5 3 -10 -2 -10 -13 0 -15 -9 -19 -50 -21 -46 -2 -68 11 -37 22 6 2 8 8
4 13 -5 5 -16 -1 -25 -12 -15 -18 -27 -21 -83 -20 -39 1 -73 7 -83 15 -9 8
-16 9 -16 3 0 -6 6 -13 13 -15 6 -3 2 -6 -10 -6 -12 -1 -24 -9 -28 -21 -10
-31 -54 -60 -94 -60 l-36 -1 -95 -166 c-117 -205 -263 -457 -495 -858 -73
-126 -83 -143 -135 -235 -68 -120 -33 -109 -344 -109 -149 0 -279 0 -288 -1
-17 0 -18 -256 -17 -5227 0 -4049 3 -5224 12 -5209 33 52 55 69 97 75 l42 6
150 260 c83 143 183 316 223 385 39 69 115 199 167 290 53 91 120 208 151 260
43 75 53 99 45 113 -21 40 16 107 59 107 29 0 65 -17 76 -36 7 -12 147 -14
815 -14 l807 0 61 -108 c34 -59 137 -237 230 -397 92 -159 184 -319 204 -355
285 -501 291 -510 327 -510 45 0 69 -14 88 -50 40 -77 -9 -160 -95 -160 -23 0
-33 -7 -46 -32 -9 -18 -64 -114 -122 -213 -58 -99 -118 -205 -135 -235 -16
-30 -38 -67 -49 -82 -10 -14 -18 -29 -18 -32 0 -3 -14 -29 -31 -58 -18 -29
-40 -67 -49 -83 -9 -17 -50 -87 -90 -155 -40 -69 -84 -145 -98 -170 -14 -25
-42 -73 -63 -107 -46 -77 -54 -100 -39 -118 8 -9 10 -31 6 -62 -12 -86 -9 -97
46 -188 30 -49 57 -97 61 -105 4 -8 15 -28 26 -45 10 -16 32 -55 49 -85 30
-54 31 -56 13 -79 l-18 -23 -21 36 c-12 21 -22 40 -22 43 0 3 -18 35 -40 70
-23 35 -38 68 -35 72 2 5 -1 11 -9 14 -8 3 -20 18 -29 34 -8 15 -31 58 -52 94
-37 65 -38 66 -77 65 -35 -1 -45 5 -72 35 l-31 36 -740 6 -740 7 -24 -25 c-13
-14 -34 -25 -47 -25 -14 0 -27 -7 -31 -16 -3 -9 -12 -13 -22 -9 -13 5 -13 4
-4 -6 10 -10 9 -18 -5 -41 -9 -15 -20 -28 -25 -28 -4 0 -6 -4 -3 -8 3 -5 -4
-21 -15 -38 -10 -16 -29 -48 -40 -72 -12 -24 -25 -39 -31 -35 -7 3 -8 1 -4 -5
9 -15 -18 -55 -29 -44 -5 4 -5 2 -2 -4 8 -13 -50 -124 -64 -124 -6 0 -7 -4 -4
-10 3 -5 -2 -10 -12 -10 -14 0 -15 -2 -4 -9 7 -5 9 -10 5 -12 -5 -2 -20 -25
-34 -51 -13 -27 -29 -48 -34 -48 -5 0 -7 -3 -3 -6 3 -3 -4 -23 -16 -43 -12
-20 -29 -48 -36 -64 -8 -15 -18 -27 -23 -27 -4 0 -8 -6 -8 -14 0 -20 -40 -86
-52 -86 -5 0 -7 -4 -4 -9 3 -5 -3 -20 -14 -34 -11 -14 -20 -31 -20 -37 0 -10
-4 -9 -15 0 -9 7 -14 19 -11 27 4 8 1 11 -5 7 -6 -3 -5 3 3 15 15 25 28 27 28
6 0 -8 4 -15 9 -15 6 0 6 12 0 32 -5 18 -5 34 -1 37 4 4 16 24 27 45 11 22 25
45 30 51 6 6 23 36 40 68 16 31 33 57 37 57 4 0 8 6 8 14 0 20 45 97 53 91 4
-3 5 -2 2 1 -8 12 26 65 37 58 7 -4 8 -3 4 5 -4 6 1 23 12 39 11 15 23 37 26
50 4 12 12 19 18 16 6 -4 8 -2 4 4 -8 14 45 101 62 102 7 0 10 4 7 10 -6 10
23 72 63 133 21 32 25 50 25 103 l-1 64 -160 278 c-88 152 -228 396 -312 542
-83 146 -166 290 -184 320 -18 30 -44 74 -56 98 -19 34 -29 42 -51 42 -43 0
-77 20 -102 59 l-22 36 -3 -1424 c-1 -783 1 -1427 4 -1430 4 -3 9 1 12 9 3 8
18 27 33 42 20 21 37 28 66 28 27 0 43 6 52 19 8 11 21 17 30 14 13 -4 12 -2
-2 10 -17 14 -17 16 5 31 12 9 19 16 15 16 -12 0 24 64 45 78 10 8 17 21 16
30 -2 10 4 17 14 17 9 0 20 4 25 9 4 5 3 6 -4 2 -6 -3 -14 -2 -18 4 -3 5 -2
10 2 10 5 0 13 15 18 33 7 21 16 32 27 31 10 -1 15 3 12 8 -8 12 15 68 28 68
5 0 6 6 3 13 -4 6 3 1 14 -12 21 -23 21 -25 4 -50 -9 -14 -23 -38 -31 -53 -7
-16 -16 -28 -18 -28 -3 0 -3 4 0 8 3 5 -1 9 -9 9 -11 0 -12 -4 -4 -13 7 -9 -1
-32 -32 -83 -23 -39 -45 -68 -50 -66 -4 3 -6 -3 -5 -12 4 -28 -33 -83 -57 -83
-12 0 -17 -4 -12 -8 19 -14 45 -74 45 -106 0 -17 -7 -42 -15 -54 -15 -21 -11
-30 81 -189 53 -93 119 -205 147 -250 l50 -83 1308 0 1309 0 46 79 c25 44 46
83 46 88 0 4 5 15 11 23 7 8 41 73 77 143 l65 128 -24 19 c-18 16 -22 26 -17
47 5 21 4 24 -4 13 -7 -11 -10 -5 -10 27 0 24 5 43 13 46 9 4 9 6 0 6 -7 1
-13 5 -13 11 0 5 6 9 12 7 8 -1 12 7 10 22 -2 21 0 22 15 10 15 -13 15 -12 4
8 -10 19 -9 22 5 16 10 -4 -2 28 -37 93 -28 54 -56 104 -61 111 -6 7 -7 16 -4
22 3 5 -1 12 -10 15 -8 3 -12 10 -9 16 3 5 2 10 -3 10 -6 0 -12 7 -16 15 -9
25 14 17 26 -10 6 -13 15 -22 20 -19 4 3 6 11 2 17 -19 38 44 -51 88 -123 55
-92 88 -131 88 -106 0 18 27 29 36 14 4 -7 9 -6 15 3 7 11 9 10 9 -4 0 -10 5
-17 11 -15 13 4 159 237 210 336 30 57 49 77 49 52 0 -5 -5 -10 -12 -10 -6 0
-3 -6 7 -14 18 -13 18 -13 -1 -24 -11 -7 -13 -12 -6 -12 25 0 1 -20 -26 -21
-24 -2 -24 -2 -4 -6 26 -5 28 -16 7 -37 -8 -8 -15 -19 -15 -25 0 -6 -4 -11 -8
-11 -5 0 -9 -6 -9 -12 -1 -7 -28 -62 -62 -123 -64 -115 -68 -125 -50 -125 5 0
7 6 3 13 -5 7 -1 6 10 -3 17 -13 17 -14 -1 -21 -17 -7 -17 -8 2 -9 11 -2 26
-2 33 -1 6 1 12 -3 12 -9 0 -5 -5 -10 -11 -10 -5 0 -7 -5 -4 -11 4 -6 14 -8
22 -4 13 4 14 3 3 -10 -7 -8 -11 -15 -9 -16 37 -10 169 -13 731 -16 659 -3
667 -3 673 16 16 50 103 79 156 51 42 -23 60 -94 37 -145 -12 -28 -5 -48 48
-135 12 -19 67 -115 123 -212 l103 -178 12259 0 c6742 0 12259 4 12259 8 0 5
8 17 18 28 10 10 19 24 20 29 4 23 64 125 71 121 4 -3 8 4 8 15 3 29 43 90 55
83 6 -4 8 -2 4 4 -7 12 13 62 26 62 4 0 7 3 6 8 -1 4 15 38 36 76 32 56 39 79
40 125 1 65 46 -18 -522 965 l-218 378 -39 4 c-40 3 -81 34 -95 69 -6 17 -15
19 -90 17 -69 -3 -84 0 -96 15 -13 16 -13 16 -8 1 6 -17 -33 -18 -652 -17
-652 0 -659 -1 -674 -21 -8 -11 -31 -25 -50 -30 -26 -7 -39 -18 -47 -41 -8
-20 -16 -28 -24 -23 -7 4 -9 3 -6 -4 11 -16 -4 -44 -20 -38 -10 4 -13 1 -8
-13 4 -13 -6 -38 -28 -73 -18 -29 -37 -61 -40 -71 -4 -10 -11 -15 -17 -12 -5
3 -8 0 -5 -7 6 -16 -49 -101 -59 -91 -4 4 -4 1 -1 -8 3 -8 -7 -35 -23 -59 -15
-25 -31 -53 -35 -62 -3 -10 -11 -18 -17 -18 -6 0 -9 -4 -6 -9 3 -4 -8 -29 -24
-55 -17 -26 -30 -49 -30 -52 0 -2 -12 -23 -27 -47 -15 -23 -39 -65 -55 -94
-47 -88 -64 -113 -73 -105 -5 4 -5 1 -1 -6 5 -7 2 -21 -7 -30 -7 -9 -34 -53
-57 -97 -24 -44 -58 -102 -75 -130 -17 -27 -42 -71 -55 -97 -23 -44 -23 -48
-7 -66 27 -30 23 -104 -9 -141 -22 -26 -33 -31 -70 -31 -34 0 -51 6 -76 29
-28 25 -33 36 -33 76 0 40 5 51 33 76 21 19 43 29 63 29 26 0 66 23 57 32 -5
5 29 48 34 43 2 -3 5 1 5 8 0 22 75 164 93 177 4 3 10 15 14 28 4 12 12 20 17
16 5 -3 8 -2 7 3 -4 14 13 53 23 53 6 0 8 4 5 9 -3 5 5 20 19 35 13 14 19 26
12 26 -8 0 -8 3 -2 8 13 8 63 93 63 106 0 5 4 12 9 15 10 6 90 142 133 224 14
26 28 47 32 47 5 0 8 7 8 15 0 7 8 19 18 24 9 6 14 11 9 11 -8 0 20 56 73 145
16 28 41 73 56 100 15 28 30 52 33 55 4 3 13 21 21 40 8 19 20 39 27 43 10 6
11 13 2 29 -7 13 -9 41 -6 71 6 46 3 55 -38 123 -25 41 -45 76 -45 78 0 3 -40
73 -90 156 -49 83 -90 153 -90 155 0 9 -174 301 -181 303 -5 2 -7 7 -5 11 3 4
-26 57 -64 117 -38 60 -111 177 -162 261 -51 84 -94 150 -96 148 -8 -7 -43 16
-37 24 7 13 -83 21 -263 22 -160 2 -163 2 -160 23 3 20 9 21 210 26 199 5 207
6 226 28 11 12 25 21 31 20 11 -3 107 144 189 284 15 27 34 48 42 47 10 0 11
-2 3 -6 -7 -2 -13 -9 -13 -14 0 -6 4 -8 9 -4 24 14 -5 -57 -73 -178 -40 -73
-76 -143 -80 -155 -8 -24 3 -29 23 -10 11 11 13 11 7 0 -4 -6 -2 -12 3 -12 6
0 11 -7 11 -16 0 -8 -5 -12 -10 -9 -7 4 -9 -2 -4 -19 3 -15 2 -26 -4 -26 -22
0 1 -56 80 -202 46 -84 90 -166 98 -183 17 -33 82 -148 190 -335 70 -120 88
-152 129 -223 10 -17 57 -99 105 -181 48 -81 92 -159 99 -173 6 -15 22 -27 40
-30 15 -3 35 -16 43 -28 14 -22 22 -23 147 -25 159 -2 71 -2 584 0 238 1 437
-1 442 -4 5 -4 12 -3 14 1 3 5 27 7 54 6 107 -4 249 -5 263 -1 8 1 21 15 28
30 15 29 66 58 104 58 20 0 70 82 394 643 318 551 370 645 362 666 -11 29 7
87 28 95 35 13 75 5 98 -19 l23 -25 804 0 804 0 74 -128 c298 -513 370 -637
552 -953 l159 -276 43 -6 c129 -17 130 -189 1 -213 l-46 -9 -152 -265 c-84
-146 -246 -427 -360 -624 -185 -321 -206 -362 -197 -383 15 -34 14 -95 -3
-119 -13 -18 -12 -25 16 -68 31 -47 40 -98 22 -116 -7 -7 -25 17 -53 65 -41
73 -44 75 -80 75 -42 0 -86 28 -96 60 -6 18 -25 19 -748 18 l-742 0 -28 -24
c-16 -13 -37 -24 -47 -24 -14 0 -40 -38 -97 -136 -43 -75 -92 -161 -109 -190
-17 -30 -34 -51 -39 -46 -4 4 -5 2 -2 -4 4 -7 -4 -27 -16 -45 -13 -19 -26 -42
-30 -52 -6 -16 52 -17 1132 -17 902 0 1140 3 1144 13 4 9 6 9 6 0 1 -10 336
-13 1601 -13 l1600 0 0 230 0 230 -59 0 c-51 0 -61 -3 -66 -20 -11 -35 -54
-60 -102 -60 -91 0 -136 100 -77 169 14 17 32 31 41 31 8 0 13 6 11 13 -3 12
-145 260 -564 982 -121 210 -167 281 -183 283 -32 5 -63 51 -56 82 9 34 22 48
53 55 23 5 47 40 148 218 67 117 235 407 373 646 233 405 249 435 236 455 -30
42 -10 132 34 156 49 25 141 -4 156 -49 4 -14 15 -21 31 -21 l24 0 0 1420 0
1420 -42 -2 c-28 -2 -50 -11 -65 -26 -12 -12 -30 -22 -40 -22 -12 0 -28 -18
-44 -48 -46 -85 -81 -145 -139 -242 -31 -52 -86 -147 -122 -210 -64 -113 -197
-342 -353 -610 -43 -74 -94 -165 -114 -201 l-35 -65 35 -59 c39 -68 53 -98 40
-91 -5 3 -11 -1 -15 -9 -11 -29 -25 -15 -76 75 l-52 90 91 156 c50 85 91 157
91 160 0 2 17 33 39 67 34 55 111 188 384 663 41 72 87 150 101 173 14 22 26
43 26 47 0 4 16 32 35 64 26 43 35 69 35 102 0 31 6 50 18 61 26 23 78 22 99
-3 12 -14 30 -20 60 -20 l43 0 0 6491 0 6491 -35 -31 c-63 -55 -142 -60 -213
-14 -93 61 -109 187 -34 266 40 43 75 57 140 57 l58 0 42 79 42 78 0 147 0
146 -203 0 c-207 0 -232 -4 -220 -38 4 -10 2 -13 -5 -8 -8 4 -12 0 -12 -11 0
-10 -14 -27 -30 -37 -17 -9 -28 -21 -25 -26 6 -10 -23 -35 -32 -27 -3 4 -12
-1 -19 -11 -12 -16 -12 -16 -11 3 2 20 0 20 -61 13 -11 -1 -166 -251 -271
-439 -31 -56 -31 -56 -11 -74 15 -13 20 -31 20 -67 0 -41 -5 -54 -29 -79 -23
-23 -38 -29 -72 -29 -36 0 -47 6 -80 40 l-38 40 -757 0 c-732 0 -758 -1 -778
-19 -20 -19 -42 -25 -78 -22 -10 0 -25 15 -33 32 -13 24 -14 37 -5 64 13 38
34 -5 -223 440 l-144 250 -1230 3 -1229 2 -30 -52 c-200 -345 -334 -580 -334
-587 0 -5 7 -14 15 -21 10 -8 15 -30 15 -62 0 -41 -5 -54 -29 -79 -23 -23 -38
-29 -72 -29 -36 0 -47 6 -80 40 l-38 40 -749 0 c-736 0 -749 0 -767 -20 -10
-11 -28 -20 -39 -20 -13 0 -28 -12 -40 -33 -10 -17 -70 -122 -134 -232 -63
-110 -145 -252 -182 -315 -36 -63 -118 -205 -182 -315 -63 -110 -144 -249
-179 -310 -57 -99 -64 -116 -65 -169 l-1 -59 315 -546 c174 -300 345 -598 382
-661 48 -84 72 -116 89 -120 13 -3 34 -18 45 -33 19 -26 19 -30 6 -54 -15 -26
-30 -37 -60 -46 -9 -3 -72 -103 -142 -223 -69 -121 -183 -318 -253 -439 -258
-444 -336 -589 -332 -607 3 -10 0 -18 -5 -18 -6 0 -5 -6 2 -15 10 -12 16 -13
26 -4 11 9 13 2 10 -44 -3 -48 -1 -55 13 -50 13 4 12 2 -2 -7 -9 -6 -15 -15
-12 -21 4 -5 1 -9 -5 -9 -6 0 -9 -4 -6 -8 3 -5 -4 -16 -15 -25 -11 -10 -18
-21 -16 -25 26 -43 47 -106 39 -114 -14 -14 -47 6 -68 40 -17 31 -54 59 -54
42 0 -5 -7 -7 -15 -4 -8 4 -12 11 -8 18 5 7 2 7 -8 -1 -18 -14 -41 -12 -63 6
-9 7 -16 10 -16 6 0 -5 -9 0 -20 10 -14 13 -17 21 -9 31 7 8 7 14 -1 19 -6 4
-9 13 -6 21 4 11 -114 14 -752 13 l-757 0 -20 -32 c-53 -84 -195 -38 -195 63
0 34 34 87 60 95 15 5 19 12 15 23 -5 14 -348 611 -575 1002 -37 63 -86 148
-109 188 -29 49 -48 72 -61 72 -28 0 -50 28 -50 63 0 41 10 56 45 65 22 6 40
28 83 102 43 75 235 407 372 645 9 17 51 89 93 162 42 72 85 147 95 165 11 18
45 76 76 129 55 94 56 97 41 125 -20 39 -19 72 5 117 11 20 16 37 11 37 -5 0
-17 17 -26 38 -10 20 -24 45 -33 55 -14 15 -13 17 2 17 9 0 15 -4 12 -8 -2 -4
5 -9 17 -9 23 -2 50 -31 41 -45 -3 -4 1 -11 10 -14 8 -3 13 -11 10 -18 -3 -8
6 -11 29 -8 42 5 94 -21 109 -53 l11 -25 749 0 c735 0 748 0 768 20 11 11 29
20 39 20 11 0 28 15 41 38 22 37 144 246 277 477 38 66 158 275 268 464 245
425 237 381 106 606 -48 82 -134 232 -191 332 l-105 182 -1243 1 c-813 0
-1241 -4 -1237 -10 3 -6 -1 -10 -10 -10 -9 0 -13 5 -10 10 4 7 -88 10 -268 10
l-274 0 -32 -65 c-17 -36 -35 -65 -41 -65 -6 0 -9 -4 -5 -9 3 -5 0 -15 -7 -23
-7 -7 -13 -17 -13 -23 0 -5 -25 -57 -55 -114 -30 -57 -73 -139 -95 -181 -22
-43 -47 -85 -55 -95 -8 -10 -14 -21 -13 -24 3 -10 -71 -150 -77 -146 -3 2 -6
-5 -7 -15 -1 -10 -81 -170 -179 -356 -183 -351 -244 -469 -372 -714 -41 -80
-78 -148 -81 -152 -7 -8 -296 -22 -471 -23 -115 0 -126 -2 -136 -20 -6 -11
-32 -60 -58 -110 -27 -49 -56 -101 -66 -115 -10 -14 -21 -35 -24 -47 -4 -13
-15 -23 -24 -24 -9 0 -12 -3 -5 -5 8 -4 5 -16 -10 -42 -11 -20 -25 -40 -30
-43 -5 -3 -8 -9 -8 -13 3 -20 0 -26 -11 -20 -7 5 -8 3 -3 -6 5 -8 1 -18 -10
-27 -11 -7 -16 -13 -12 -13 7 0 -26 -64 -98 -195 -13 -22 -37 -67 -55 -100
-18 -33 -40 -71 -49 -85 -8 -14 -16 -27 -16 -30 -1 -8 -98 -184 -104 -190 -3
-3 -21 -35 -40 -72 -19 -37 -39 -64 -44 -61 -6 3 -7 1 -3 -5 9 -15 -32 -95
-44 -87 -6 3 -7 -1 -4 -9 4 -10 1 -16 -7 -16 -7 0 -10 -3 -6 -6 11 -11 -23
-64 -41 -65 -9 0 -12 -3 -5 -5 9 -4 6 -18 -9 -49 -12 -24 -26 -41 -31 -38 -11
6 -6 -2 37 -65 79 -116 9 -268 -128 -280 -83 -7 -148 33 -181 111 -32 77 -4
168 68 215 34 22 51 27 103 26 60 0 64 1 75 28 6 16 25 47 40 68 16 22 27 40
24 40 -5 0 14 38 86 168 12 20 28 45 37 55 8 9 12 17 9 17 -6 0 32 73 87 171
13 21 26 36 31 32 4 -5 5 -3 2 3 -7 13 31 94 44 94 5 0 8 3 7 8 -3 11 69 147
87 166 9 9 14 16 10 16 -6 0 24 60 36 70 3 3 11 20 19 38 7 19 18 39 24 46 6
6 27 43 46 81 18 39 36 72 40 75 3 3 29 52 59 110 109 210 125 234 161 241 18
4 123 11 234 15 111 4 204 9 209 10 4 1 34 2 66 3 l59 1 48 93 c26 50 59 115
74 142 15 28 75 145 135 260 59 116 120 233 135 260 15 28 67 127 115 220 49
94 97 186 108 205 11 19 56 105 99 190 78 151 108 208 237 453 l62 117 -3696
0 c-2033 0 -3694 -4 -3691 -8 3 -5 -10 -8 -29 -8 -18 1 -31 4 -28 9 2 4 -566
7 -1264 7 l-1268 0 -29 -47 c-16 -27 -29 -50 -29 -53 -1 -3 -20 -38 -44 -77
-23 -40 -59 -103 -79 -140 -21 -38 -50 -87 -66 -110 -15 -23 -28 -45 -28 -49
0 -3 -21 -41 -47 -83 -25 -42 -62 -105 -81 -141 -52 -95 -68 -121 -74 -115 -2
3 -5 -1 -5 -7 0 -12 -65 -128 -233 -418 -40 -69 -83 -143 -95 -165 -13 -22
-46 -80 -75 -130 -29 -49 -64 -110 -78 -135 -14 -25 -44 -76 -67 -115 -23 -38
-53 -91 -67 -117 -14 -26 -29 -44 -33 -40 -5 4 -5 2 -2 -4 8 -14 -27 -66 -38
-57 -4 5 -5 2 -1 -5 4 -7 -8 -40 -29 -77 -21 -38 -31 -64 -23 -63 7 2 12 -5
12 -14 -1 -10 2 -18 7 -18 13 0 61 -88 54 -100 -4 -6 -3 -9 2 -8 4 2 8 0 8 -3
0 -3 8 -14 18 -24 10 -9 16 -24 13 -32 -3 -8 -2 -12 3 -8 5 3 18 -10 29 -27
43 -72 71 -128 64 -128 -4 0 -2 -4 4 -8 7 -4 28 -34 48 -67 34 -57 35 -60 19
-85 -9 -14 -27 -46 -40 -72 -14 -30 -30 -48 -41 -48 -11 0 -13 -3 -5 -8 9 -5
1 -27 -27 -77 -21 -39 -56 -103 -77 -142 -31 -61 -41 -72 -58 -67 -15 4 -17 3
-6 -5 13 -8 12 -15 -4 -50 -10 -22 -22 -38 -26 -35 -5 3 -6 -2 -3 -10 4 -11 0
-16 -11 -16 -9 0 -14 -4 -10 -9 7 -13 -16 -62 -26 -55 -5 3 -6 -1 -3 -9 3 -8
-9 -29 -28 -48 -18 -18 -27 -30 -20 -25 17 10 15 -1 -10 -45 -11 -21 -26 -35
-31 -32 -6 3 -7 1 -3 -5 10 -16 -32 -94 -46 -86 -6 4 -8 3 -4 -4 6 -10 -56
-139 -72 -152 -4 -3 -8 -10 -9 -16 -1 -7 -15 -34 -31 -60 -15 -27 -50 -89 -77
-139 -26 -49 -52 -93 -57 -96 -5 -3 -10 -10 -10 -15 0 -5 -4 -8 -9 -6 -5 1 -8
-1 -8 -5 4 -23 -2 -43 -11 -38 -6 3 -7 -1 -4 -9 4 -10 -1 -18 -10 -22 -9 -3
-16 -11 -15 -18 3 -16 -12 -47 -20 -42 -15 10 -8 -51 9 -69 75 -84 48 -225
-53 -274 -93 -45 -195 -11 -243 81 -18 34 -18 109 0 151 29 69 110 113 187
103 l46 -6 43 82 c23 46 50 94 59 108 9 14 27 46 41 73 13 26 28 47 33 47 4 0
6 4 3 8 -3 5 4 21 15 38 11 16 36 61 55 99 20 39 39 72 43 75 3 3 17 28 30 57
13 29 29 49 34 46 6 -3 7 -1 3 6 -9 14 32 83 45 76 5 -4 6 0 3 8 -3 8 23 64
58 126 35 62 86 154 113 206 28 51 56 100 64 109 7 9 11 16 7 16 -3 0 5 18 18
39 14 22 46 79 72 128 26 48 55 101 64 118 20 36 34 72 24 62 -8 -8 -38 40
-169 268 -50 88 -101 176 -113 196 -22 35 -22 36 -3 56 11 12 17 24 14 27 -4
3 -1 6 5 6 6 0 16 16 22 35 6 19 15 33 19 31 4 -3 7 3 8 13 2 20 61 122 77
133 6 4 8 8 4 8 -4 0 22 51 59 113 79 135 167 287 198 342 12 22 56 99 97 170
41 72 81 141 89 155 8 14 16 27 20 30 3 3 13 22 22 43 10 20 21 37 26 37 4 0
8 6 8 13 0 6 69 131 153 277 84 146 170 294 190 330 20 36 71 124 113 197 42
73 77 135 77 138 0 3 -247 5 -550 5 -341 -1 -550 -5 -550 -10 0 -6 7 -10 15
-10 8 0 15 -5 15 -11 0 -6 -9 -8 -22 -3 -21 6 -22 5 -8 -11 14 -17 13 -18 -5
-11 -16 6 -18 5 -7 -5 16 -18 15 -39 -3 -39 -9 0 -12 -6 -9 -15 4 -10 2 -13
-8 -10 -11 4 -15 -2 -15 -25 0 -17 -7 -38 -16 -47 -15 -15 -16 -14 -11 8 5 22
4 21 -10 -5 -18 -33 -20 -40 -7 -31 10 5 -17 -56 -28 -65 -4 -3 -21 -34 -40
-70 -18 -36 -41 -74 -51 -85 -11 -11 -19 -23 -19 -27 -1 -5 -4 -8 -8 -7 -5 1
-7 5 -5 10 1 5 -1 8 -5 7 -5 -2 -8 2 -8 7 0 6 4 9 8 7 4 -1 7 3 5 10 -3 16 63
148 74 148 5 0 8 -8 8 -17 0 -15 2 -16 10 -3 5 8 6 17 2 20 -12 8 -8 28 7 42
12 11 13 10 6 -2 -8 -13 -7 -13 9 -1 10 9 13 17 7 20 -9 6 33 91 45 91 3 0 2
-5 -2 -12 -4 -7 -3 -8 5 -4 8 5 9 12 3 19 -6 8 -3 22 8 40 11 18 20 24 25 18
3 -6 11 -9 16 -5 6 4 6 11 -1 19 -8 10 -8 19 -1 34 6 11 11 22 11 25 0 3 -504
6 -1119 6 -1004 0 -1121 -2 -1135 -16 -21 -21 -20 -30 1 -13 10 9 6 -4 -11
-36 -16 -27 -32 -53 -37 -56 -5 -3 -11 -16 -14 -28 -2 -13 -12 -35 -22 -50
-10 -14 -26 -43 -36 -63 -11 -21 -26 -38 -36 -38 -14 0 -14 -2 -1 -11 12 -8
12 -10 -5 -7 -11 2 -21 12 -23 22 -3 11 0 16 7 12 7 -5 9 -1 5 8 -3 9 -1 16 6
16 6 0 8 5 5 10 -3 6 -1 10 4 10 6 0 10 3 9 8 -3 16 15 42 31 43 9 0 11 3 5 5
-13 5 8 58 27 69 5 4 7 11 3 16 -3 6 4 13 16 16 14 4 18 8 10 13 -9 6 -6 14 9
29 11 11 21 26 21 31 0 12 -6736 14 -6744 2z m20768 -30 c3 -5 -1 -9 -9 -9 -8
0 -12 4 -9 9 3 4 7 8 9 8 2 0 6 -4 9 -8z m-20724 -22 c6 -11 8 -20 6 -20 -3 0
-10 9 -16 20 -6 11 -8 20 -6 20 3 0 10 -9 16 -20z m1525 10 c3 -5 1 -10 -4
-10 -6 0 -11 5 -11 10 0 6 2 10 4 10 3 0 8 -4 11 -10z m-1510 -50 c3 -5 1 -10
-4 -10 -6 0 -11 5 -11 10 0 6 2 10 4 10 3 0 8 -4 11 -10z m20671 1 c-3 -5 2
-12 11 -15 15 -6 15 -8 3 -16 -11 -7 -17 -4 -21 8 -6 17 -3 32 7 32 3 0 3 -4
0 -9z m10234 -6 c-7 -8 -17 -15 -22 -15 -11 0 14 29 26 30 5 0 3 -7 -4 -15z
m-110 -42 c0 -5 -5 -15 -10 -23 -8 -12 -10 -11 -10 8 0 12 5 22 10 22 6 0 10
-3 10 -7z m-10140 -27 c0 -2 -8 -10 -17 -17 -16 -13 -17 -12 -4 4 13 16 21 21
21 13z m-49 -48 c-9 -4 -11 -7 -5 -7 22 -2 10 -31 -13 -31 -12 0 -23 5 -23 10
0 6 5 9 12 8 12 -3 14 3 17 37 1 13 3 13 15 3 12 -11 11 -14 -3 -20z m-24 -73
c-1 0 -12 -8 -24 -18 -16 -14 -23 -15 -29 -6 -4 7 -3 10 3 6 5 -4 16 5 23 19
10 17 16 21 21 12 4 -7 7 -13 6 -13z m-14047 -37 c0 -5 5 -6 12 -2 6 4 -4 -19
-22 -52 -41 -73 -39 -71 -49 -55 -7 10 -9 10 -14 -3 -3 -8 -1 -17 6 -19 16 -6
-6 -43 -24 -39 -9 2 -10 0 -1 -10 8 -10 6 -20 -8 -38 -25 -32 -25 -30 11 -89
69 -110 20 -238 -103 -272 -103 -27 -205 44 -216 150 -6 68 2 95 44 141 44 48
90 64 160 56 50 -6 54 -4 54 14 0 11 5 20 10 20 6 0 9 3 8 8 -3 13 14 42 22
37 4 -3 11 2 14 11 4 10 2 13 -6 8 -7 -4 0 12 15 37 15 24 34 61 43 81 10 24
20 35 30 31 8 -3 14 -9 14 -15z m14006 -28 c0 -12 -4 -16 -9 -11 -5 5 -6 14
-3 20 10 15 12 14 12 -9z m-28 -31 c-3 -8 -7 -3 -11 10 -4 17 -3 21 5 13 5 -5
8 -16 6 -23z m-10 -33 c-12 -9 -14 -16 -7 -23 7 -7 7 -13 1 -17 -5 -3 -12 3
-15 14 -3 12 1 24 11 30 24 14 30 12 10 -4z m-32 -41 c3 -17 -12 -20 -21 -5
-3 6 -1 10 5 10 6 0 8 6 4 13 -4 6 -3 8 1 4 5 -4 10 -14 11 -22z m-11753 -24
c-2 -6 3 -11 10 -11 7 0 8 -3 2 -8 -5 -4 -18 -24 -27 -44 -10 -21 -22 -38 -28
-38 -5 0 -7 -6 -4 -14 3 -7 -2 -16 -11 -20 -9 -3 -13 -11 -9 -17 5 -9 -1 -10
-19 -5 -21 5 -25 3 -21 -8 3 -8 12 -12 21 -9 13 5 12 1 -3 -23 -10 -16 -21
-31 -25 -34 -3 -3 -9 -15 -13 -28 -4 -12 -12 -19 -18 -16 -7 4 -8 2 -4 -4 4
-7 4 -17 0 -23 -5 -8 -9 -7 -14 1 -5 8 -8 2 -7 -16 1 -16 6 -32 12 -36 6 -5 2
-8 -7 -8 -10 0 -18 5 -18 10 0 6 -5 9 -11 8 -6 -2 -13 5 -14 15 -2 10 3 17 13
17 15 0 15 2 2 10 -11 7 -11 10 -2 10 7 0 10 5 7 10 -3 6 -1 10 4 10 6 0 11 7
11 15 0 8 8 15 18 16 10 0 12 3 5 6 -10 3 -10 10 -1 26 6 12 14 24 17 27 10 8
31 44 37 63 4 9 11 17 16 17 6 0 7 -7 4 -16 -3 -8 -2 -12 4 -9 14 8 13 32 -1
37 -8 3 -7 9 3 19 9 8 19 25 23 38 4 13 12 20 20 17 7 -2 16 1 19 9 3 10 0 12
-11 8 -11 -4 -14 -3 -9 6 9 14 32 8 29 -8z m7988 -37 c2 2 14 -10 27 -25 19
-24 21 -29 7 -29 -13 0 -14 -4 -5 -20 9 -16 8 -20 -5 -20 -8 0 -15 -7 -15 -16
0 -14 -2 -15 -17 -3 -11 10 -14 10 -9 2 10 -18 -18 -16 -55 3 -28 14 -30 19
-25 52 3 20 5 41 6 46 0 4 7 5 16 2 8 -3 12 -2 9 3 -7 13 26 19 46 10 9 -5 18
-7 20 -5z m3745 -2 c-10 -2 -22 0 -28 6 -6 6 0 7 19 4 21 -5 23 -7 9 -10z
m-47 -71 c12 -8 9 -11 -12 -17 -16 -3 -31 -4 -34 0 -4 3 2 6 13 6 16 0 17 2 4
10 -13 9 -13 10 0 10 8 0 22 -4 29 -9z m-49 -51 c-6 -11 -15 -20 -20 -20 -6 0
-2 9 7 20 10 11 19 20 21 20 1 0 -2 -9 -8 -20z m21 -3 c-10 -9 -11 -8 -5 6 3
10 9 15 12 12 3 -3 0 -11 -7 -18z m-58 -60 c3 -8 -1 -14 -8 -14 -7 0 -11 6 -8
14 3 7 6 13 8 13 2 0 5 -6 8 -13z m68 -87 c23 -18 23 -19 4 -20 -18 -1 -18 -2
3 -10 12 -5 23 -14 23 -20 1 -5 3 -14 4 -20 1 -5 3 -16 4 -22 1 -10 4 -9 10 1
7 11 10 8 16 -10 5 -14 3 -25 -4 -27 -6 -2 -11 -9 -11 -15 0 -8 4 -7 12 1 20
20 30 13 26 -18 -4 -23 -1 -30 13 -30 18 0 29 -19 29 -50 0 -23 -29 -20 -42 5
-8 13 -7 16 1 11 7 -5 9 -1 5 9 -4 9 -9 14 -12 11 -6 -6 -71 94 -72 109 0 6 5
3 10 -5 8 -13 10 -12 10 3 0 9 -5 17 -11 17 -6 0 -9 8 -7 18 3 11 0 19 -7 19
-7 0 -10 -9 -8 -21 2 -12 -7 -1 -20 24 -33 61 -22 79 24 40z m-11822 -71 c-20
-13 -36 -11 -42 4 -4 10 3 12 25 9 21 -3 26 -7 17 -13z m20 -24 c1 16 4 15 16
-9 14 -26 14 -30 -2 -42 -17 -12 -17 -13 2 -10 26 4 64 -42 45 -54 -17 -11
-50 6 -50 24 0 8 -7 19 -15 26 -8 7 -13 16 -10 20 3 5 1 11 -5 15 -6 4 -8 11
-5 16 4 5 0 9 -7 9 -9 0 -9 3 2 10 11 7 17 5 22 -8 6 -15 7 -14 7 3z m86 -134
c3 -5 1 -12 -4 -15 -5 -4 -12 0 -14 6 -3 8 -6 5 -6 -6 -1 -13 4 -17 17 -14 21
6 87 -83 85 -113 -1 -10 3 -18 10 -16 6 1 13 -6 15 -15 3 -14 -3 -18 -23 -18
-24 0 -27 3 -21 28 3 15 3 21 0 15 -9 -21 -27 -15 -21 7 3 11 1 18 -4 14 -5
-3 -9 2 -9 10 0 9 -5 16 -10 16 -6 0 -13 8 -17 18 -3 9 -15 29 -25 44 -11 16
-16 32 -13 38 8 13 32 13 40 1z m11863 -54 c-22 -8 -38 -2 -38 14 0 6 5 7 10
4 6 -3 13 1 16 10 6 14 8 14 19 -2 12 -16 11 -19 -7 -26z m5044 -19 c7 -13 11
-26 10 -30 -1 -5 3 -8 9 -8 7 0 9 -10 5 -27 -4 -18 -3 -23 2 -14 8 10 13 8 25
-10 9 -12 14 -26 11 -31 -3 -4 0 -8 6 -8 6 0 9 -4 6 -9 -3 -5 0 -11 8 -14 8
-3 26 -30 40 -59 15 -29 49 -91 76 -137 28 -46 50 -86 50 -88 0 -2 8 -16 19
-31 10 -15 47 -76 82 -137 34 -60 87 -150 116 -200 29 -49 51 -96 48 -103 -3
-7 -1 -11 4 -8 5 4 21 -14 35 -39 17 -29 34 -45 46 -45 11 0 28 -9 39 -21 19
-21 24 -21 775 -25 461 -2 756 0 756 5 0 5 12 23 26 40 46 55 132 51 167 -8
21 -36 22 -90 2 -118 -14 -20 -8 -33 97 -215 61 -106 134 -233 163 -283 139
-243 258 -447 356 -611 112 -187 117 -192 184 -198 6 -1 15 -10 22 -22 18 -31
83 -34 830 -34 l664 0 38 40 c33 34 44 40 80 40 61 0 101 -41 101 -103 0 -28
-7 -53 -19 -68 -18 -24 -18 -24 18 -89 89 -155 311 -539 339 -585 41 -67 280
-483 327 -567 23 -43 43 -68 54 -68 28 0 61 -38 61 -70 0 -33 -30 -70 -58 -70
-12 0 -36 -31 -74 -97 -70 -122 -246 -427 -502 -870 -168 -291 -196 -345 -187
-362 19 -35 13 -87 -15 -120 -22 -27 -32 -31 -74 -31 -51 0 -94 24 -105 60 -6
20 -18 20 -730 20 -698 0 -724 -1 -730 -19 -9 -31 -43 -54 -87 -60 -41 -6 -42
-7 -111 -126 -168 -291 -376 -650 -518 -895 -141 -244 -153 -268 -151 -309 4
-53 -18 -81 -61 -81 -36 0 -77 34 -77 65 0 31 26 62 57 68 21 5 36 21 64 69
49 87 231 401 491 851 218 377 218 377 203 407 -19 37 -19 80 1 108 15 22 10
33 -147 305 -579 1000 -586 1012 -606 1015 -12 2 -29 12 -39 23 -17 18 -37 19
-775 19 -757 0 -758 0 -764 -21 -9 -28 -63 -59 -102 -59 -22 0 -33 -5 -33 -14
0 -8 -4 -16 -8 -18 -4 -1 -18 -20 -30 -41 -12 -21 -17 -35 -11 -32 6 4 5 -2
-3 -14 -7 -12 -16 -21 -19 -21 -3 0 -17 -23 -30 -50 -16 -34 -28 -49 -38 -45
-11 4 -12 3 -1 -10 7 -8 9 -15 4 -15 -5 0 -18 -12 -28 -27 -11 -15 -14 -23 -5
-18 7 5 4 -4 -9 -19 -12 -16 -22 -34 -22 -41 0 -7 -7 -18 -15 -25 -8 -7 -12
-17 -8 -23 3 -5 2 -7 -4 -4 -5 3 -24 -23 -43 -58 -19 -35 -38 -61 -43 -58 -6
3 -7 1 -3 -6 4 -6 0 -24 -10 -39 -10 -15 -19 -33 -20 -41 -2 -8 -6 -17 -11
-20 -11 -8 -29 -38 -52 -89 -11 -23 -27 -45 -35 -48 -9 -3 -16 -12 -16 -18 0
-21 -36 -87 -43 -80 -6 6 -11 -18 -8 -38 0 -4 -8 -10 -19 -13 -10 -3 -17 -12
-14 -18 2 -7 -4 -22 -15 -33 -10 -11 -22 -31 -26 -45 -4 -13 -13 -31 -19 -39
-6 -8 -22 -35 -36 -60 -13 -25 -28 -54 -34 -65 -6 -11 -14 -22 -18 -25 -3 -3
-8 -12 -10 -20 -2 -8 -9 -21 -16 -28 -8 -9 -10 -22 -5 -36 4 -11 6 -31 6 -43
-1 -13 -3 -35 -4 -50 -1 -15 4 -29 10 -31 6 -2 11 -9 11 -15 0 -7 23 -50 51
-97 28 -47 83 -141 122 -210 40 -69 76 -132 82 -141 5 -9 23 -40 39 -70 15
-30 34 -61 41 -69 7 -8 28 -44 47 -80 20 -36 65 -116 102 -179 36 -62 66 -116
66 -118 0 -2 14 -24 30 -48 17 -24 30 -48 30 -54 0 -6 3 -11 8 -11 4 0 12 -10
18 -23 62 -128 78 -147 119 -147 38 0 82 -41 91 -86 12 -61 -45 -124 -113
-124 -26 0 -38 -18 -167 -243 -263 -456 -619 -1072 -633 -1094 l-13 -23 -853
0 -852 0 -185 322 c-102 177 -244 423 -317 547 -72 124 -171 295 -220 378 -65
113 -93 153 -107 153 -31 0 -56 30 -56 67 0 36 29 73 58 73 12 0 46 49 109
158 83 142 373 643 576 995 69 119 79 142 69 158 -7 10 -12 39 -12 65 0 64 39
104 103 104 48 0 91 -25 102 -60 6 -20 18 -20 763 -20 746 0 757 0 770 20 7
11 22 20 35 21 23 0 87 77 87 104 0 8 5 15 11 15 5 0 8 4 5 9 -3 5 1 14 9 21
8 7 15 17 15 22 0 17 47 78 54 71 4 -4 4 0 1 9 -3 8 1 22 9 31 9 9 16 21 16
27 0 7 14 32 30 57 17 24 37 58 46 76 9 18 20 34 23 37 3 3 24 39 45 80 21 41
47 86 56 100 9 14 20 32 23 40 4 8 16 29 27 45 11 17 31 53 46 80 68 129 160
275 174 276 10 0 11 2 3 6 -10 3 -10 10 -2 24 5 11 15 16 21 13 7 -4 8 -3 4 4
-4 6 4 30 16 53 13 23 29 53 36 66 12 21 12 27 -3 42 -27 31 -30 85 -7 125
l21 36 -61 107 c-33 60 -107 187 -163 283 -56 96 -157 272 -226 390 -68 118
-127 220 -132 225 -12 15 -74 121 -109 187 -29 54 -33 58 -67 58 -39 0 -72 21
-90 58 l-12 22 -581 0 -580 0 14 23 15 22 566 3 566 2 12 23 c17 33 51 57 82
57 33 0 44 10 76 70 13 25 30 52 36 60 7 8 16 25 19 38 4 12 12 22 17 22 6 0
7 5 4 10 -3 6 -1 10 4 10 6 0 11 6 11 13 0 7 18 41 40 75 22 33 40 66 40 71 0
5 6 16 14 23 12 13 49 76 51 88 0 3 13 24 28 48 16 24 36 58 46 75 10 18 39
67 64 109 25 42 43 78 41 80 -2 2 8 17 22 33 13 16 27 39 30 52 4 13 9 23 13
23 3 0 12 15 20 33 8 17 17 34 20 37 3 3 17 25 30 50 14 25 42 74 64 110 84
138 88 147 81 188 -3 22 -1 48 5 60 8 16 8 24 -2 34 -7 7 -14 18 -15 23 -1 6
-9 18 -17 27 -8 10 -17 29 -21 43 -3 14 -10 25 -14 25 -5 0 -19 23 -31 50 -12
28 -27 50 -32 50 -5 0 -7 6 -4 14 3 8 3 16 -2 18 -11 5 -84 130 -84 145 0 7
-3 11 -5 8 -9 -9 -43 57 -38 72 3 8 2 11 -3 8 -5 -3 -12 3 -16 14 -3 11 -12
22 -20 25 -8 3 -15 14 -15 24 0 10 -9 28 -20 40 -12 12 -17 22 -13 22 4 0 -1
7 -11 15 -11 8 -17 15 -13 15 3 0 -6 21 -21 48 -16 26 -37 66 -47 90 -10 23
-23 42 -28 42 -5 0 -6 8 -3 17 4 10 4 14 0 11 -8 -9 -34 16 -34 33 0 7 -8 21
-17 31 -20 22 -41 79 -35 96 6 19 20 14 34 -10z m-4987 -46 c16 -31 34 -60 40
-64 7 -5 6 -14 -3 -29 -7 -11 -11 -24 -8 -27 3 -3 6 0 6 6 0 17 16 15 35 -4
10 -10 12 -20 7 -28 -15 -18 -11 -48 4 -35 9 7 18 2 33 -17 12 -15 21 -32 21
-39 0 -6 9 -22 20 -35 11 -13 20 -29 20 -37 0 -7 4 -13 9 -13 11 0 26 -39 22
-59 -1 -7 2 -10 7 -7 6 3 13 -1 16 -10 3 -8 2 -12 -3 -9 -5 3 -12 1 -16 -5 -6
-9 7 -14 28 -11 4 0 7 -5 7 -12 0 -7 9 -20 20 -30 11 -9 20 -24 20 -32 0 -8 5
-15 11 -15 6 0 8 -7 5 -16 -4 -10 -2 -13 6 -8 7 5 9 0 6 -14 -4 -14 0 -22 13
-25 20 -5 27 -27 8 -27 -5 0 -7 5 -3 12 4 7 3 8 -5 4 -16 -10 -4 -26 20 -26
11 0 18 -4 14 -9 -3 -5 2 -17 11 -26 9 -9 14 -19 10 -22 -3 -3 3 -13 14 -20
11 -8 17 -19 14 -25 -4 -6 0 -17 10 -23 15 -12 15 -13 -4 -18 -11 -3 -20 -1
-20 5 0 5 -4 6 -10 3 -6 -3 -7 1 -4 9 4 10 -1 18 -11 22 -13 5 -14 9 -3 15 10
7 11 9 0 9 -7 0 -10 4 -7 10 3 5 0 7 -7 5 -15 -6 -55 60 -50 83 2 9 -1 11 -9
6 -9 -5 -10 -2 -6 9 4 12 1 17 -10 17 -9 0 -14 3 -10 6 3 4 -1 13 -9 21 -12
12 -12 18 -2 31 11 13 11 14 0 8 -16 -9 -44 22 -37 41 2 7 -1 12 -8 10 -7 -1
-11 9 -10 26 2 21 -2 27 -15 25 -11 -2 -18 5 -20 20 -2 12 -7 22 -11 22 -10 0
-8 31 4 49 5 9 4 12 -3 7 -6 -3 -15 2 -21 11 -8 14 -10 14 -11 3 0 -10 -5 -7
-16 8 -8 12 -12 27 -8 34 5 7 3 8 -6 3 -10 -6 -12 -4 -6 11 4 10 4 15 0 11
-10 -10 -46 34 -40 50 3 7 -4 17 -14 23 -11 6 -20 20 -20 30 0 11 -4 20 -9 20
-5 0 -11 7 -14 14 -4 11 -1 13 10 9 11 -4 14 -2 9 5 -4 7 -13 12 -19 12 -7 0
-18 9 -24 20 -11 16 -10 18 2 14 8 -4 15 -10 15 -15 0 -5 4 -9 10 -9 20 0 -3
29 -32 39 -16 6 -27 15 -23 21 3 5 2 10 -4 10 -6 0 -8 7 -5 15 12 31 39 14 69
-43z m-11776 -122 c18 -38 14 -59 -11 -44 -7 5 -9 2 -4 -7 4 -8 -2 -3 -14 10
-12 14 -19 33 -17 43 3 9 0 16 -5 15 -6 -1 -13 4 -15 11 -3 7 5 12 21 12 20 0
30 -9 45 -40z m11871 -34 c0 -3 -4 -8 -10 -11 -5 -3 -10 -1 -10 4 0 6 5 11 10
11 6 0 10 -2 10 -4z m-11840 -42 c0 -8 -4 -14 -10 -14 -5 0 -10 -8 -10 -19 0
-18 -30 -52 -30 -35 0 5 -9 -2 -20 -16 -10 -14 -22 -22 -26 -18 -4 4 -2 13 4
20 6 7 10 16 9 20 -4 14 34 49 45 42 7 -4 8 -3 4 5 -4 6 -13 9 -19 5 -7 -3 -1
4 12 15 24 22 41 20 41 -5z m-60 -107 c-8 -7 -16 -19 -18 -26 -2 -8 -10 -20
-18 -26 -9 -6 -14 -15 -13 -20 2 -6 -1 -21 -5 -33 -6 -18 -13 -22 -28 -18 -16
4 -18 2 -9 -7 14 -14 15 -30 1 -22 -6 4 -7 -1 -3 -11 5 -13 3 -16 -10 -11 -19
7 -23 -8 -4 -17 6 -3 1 -4 -12 -3 -14 1 -26 9 -28 17 -4 13 -3 13 6 0 9 -13
11 -13 11 3 0 9 4 25 9 35 5 9 17 35 27 56 20 41 49 78 57 70 2 -2 12 5 22 16
10 11 21 17 24 14 3 -3 -1 -11 -9 -17z m-120 -219 c0 -5 -5 -6 -12 -2 -7 5 -9
0 -6 -14 5 -16 0 -22 -21 -27 -14 -4 -29 -12 -33 -18 -4 -6 -10 -9 -13 -5 -3
3 1 13 10 22 9 9 13 16 9 16 -4 0 1 7 12 15 10 8 15 15 9 15 -5 0 -4 4 4 9 16
10 41 4 41 -11z m-3850 -45 c0 6 5 4 11 -5 5 -10 15 -18 20 -18 11 0 45 -31
42 -38 -1 -3 -7 -9 -15 -14 -10 -8 -9 -9 3 -5 28 9 32 -42 5 -53 -13 -6 -15
-9 -6 -10 12 0 12 -3 -2 -14 -10 -7 -15 -16 -11 -19 3 -4 -1 -7 -11 -7 -9 0
-14 -4 -11 -10 9 -14 -8 -12 -24 3 -11 9 -14 9 -18 0 -4 -10 -11 -10 -32 1
-16 9 -33 11 -41 6 -12 -7 -15 1 -17 38 -2 65 -2 64 -15 57 -7 -4 -5 0 5 8 11
9 14 16 7 19 -6 2 -3 12 9 25 11 11 17 23 14 27 -3 3 4 4 16 1 11 -2 21 0 21
5 0 6 10 6 25 0 18 -7 25 -6 25 3z m3807 -32 c-8 -23 -15 -28 -35 -25 -20 4
-21 2 -10 -10 7 -7 17 -11 22 -8 5 3 6 0 2 -7 -5 -7 -15 -10 -23 -7 -8 4 -11
2 -7 -5 4 -6 0 -15 -7 -20 -10 -6 -10 -9 -2 -9 9 0 6 -13 -8 -39 -13 -26 -25
-38 -35 -34 -8 3 -14 11 -14 19 0 8 6 11 16 7 12 -4 15 -2 12 8 -3 8 -10 13
-16 12 -6 -2 -9 4 -6 12 4 8 14 15 23 15 14 0 14 2 1 10 -13 9 -7 14 13 11 4
0 7 9 7 22 0 28 17 47 36 40 8 -3 14 1 14 10 0 8 6 18 13 20 6 3 13 6 14 6 1
1 -4 -12 -10 -28z m-111 -174 c8 -21 -14 -69 -28 -61 -7 5 -10 2 -6 -7 5 -16
-27 -51 -38 -41 -3 4 -1 -3 5 -15 9 -18 9 -22 -1 -18 -8 3 -14 -4 -15 -21 0
-15 -6 -30 -13 -34 -6 -4 -11 -11 -11 -16 2 -23 -11 -40 -39 -53 -29 -12 -30
-14 -13 -28 17 -13 16 -14 -7 -8 -21 5 -22 4 -7 -5 14 -9 15 -15 6 -31 -6 -12
-17 -18 -25 -15 -8 3 -14 -1 -14 -10 0 -8 5 -12 10 -9 6 4 5 -5 -2 -19 -6 -14
-18 -26 -25 -26 -8 0 -11 4 -8 10 4 6 -1 7 -11 3 -10 -4 -13 -8 -7 -10 7 -3 9
-12 6 -21 -6 -15 -5 -16 13 -2 18 14 18 14 4 -5 -26 -34 -38 -45 -52 -45 -10
0 -10 -2 1 -9 15 -10 8 -41 -9 -41 -10 0 -12 6 -13 33 -1 23 41 105 60 116 10
6 13 11 6 11 -14 0 16 60 30 60 5 0 6 -4 2 -9 -6 -11 13 -26 22 -18 2 3 0 14
-5 23 -11 20 10 74 29 74 6 0 8 7 5 16 -7 18 21 57 35 49 4 -3 6 6 3 19 -2 13
2 30 8 38 7 7 21 30 30 50 13 28 22 36 38 33 11 -2 18 0 15 6 -4 5 -11 7 -16
4 -13 -9 -11 14 4 30 15 18 26 19 33 2z m12524 -2 c0 -8 4 -15 9 -15 5 0 11
-7 15 -15 4 -13 2 -14 -14 -5 -11 6 -20 16 -21 23 0 9 -2 9 -6 0 -8 -21 -22
-15 -16 7 6 23 33 27 33 5z m-9888 -100 c-3 -5 2 -4 11 4 11 9 17 10 17 2 0
-6 7 -11 15 -11 8 0 15 -5 15 -11 0 -5 5 -7 12 -3 8 5 9 2 5 -10 -6 -14 -4
-15 16 -5 20 11 21 11 8 -4 -9 -11 -10 -17 -2 -17 6 0 11 -7 11 -15 0 -8 6
-15 13 -15 6 -1 1 -10 -13 -21 -22 -18 -22 -21 -5 -17 13 2 19 -2 17 -11 -2
-8 -4 -26 -5 -41 -1 -19 -6 -26 -16 -22 -10 4 -12 1 -6 -7 4 -8 2 -17 -6 -22
-8 -4 -14 -14 -14 -21 -1 -7 -6 -12 -13 -10 -13 2 -17 -14 -4 -21 4 -2 2 -2
-5 -1 -7 2 -15 -1 -19 -7 -4 -6 -11 -6 -20 2 -8 6 -15 9 -15 5 -1 -3 -2 -10
-3 -15 0 -5 -4 -13 -8 -17 -4 -3 -6 2 -4 12 3 14 -2 19 -20 20 -15 1 -21 -2
-17 -10 4 -6 -1 -5 -10 3 -11 9 -17 10 -17 2 0 -6 -4 -11 -9 -11 -5 0 -7 8 -4
19 4 16 0 18 -29 16 -18 -2 -27 -1 -20 2 17 7 15 24 -3 17 -10 -4 -15 0 -15
11 0 9 4 14 8 11 5 -3 9 2 9 10 0 9 -6 13 -15 9 -10 -4 -13 0 -9 15 3 11 1 20
-5 20 -6 0 -8 6 -5 14 3 8 3 17 -1 20 -13 14 -10 37 4 32 10 -4 14 3 14 24 0
22 5 30 18 30 9 0 27 16 40 35 23 36 36 43 47 25 3 -5 15 -10 27 -10 18 0 19
2 7 17 -13 15 -12 15 8 3 12 -8 19 -19 15 -25z m-112 -4 c0 -6 -4 -13 -10 -16
-5 -3 -10 1 -10 9 0 9 5 16 10 16 6 0 10 -4 10 -9z m20200 -91 c43 -43 11
-120 -48 -120 -37 0 -65 31 -64 71 2 63 69 92 112 49z m-22850 -74 c0 -3 -4
-8 -10 -11 -5 -3 -10 -1 -10 4 0 6 5 11 10 11 6 0 10 -2 10 -4z m-172 -266 c7
-11 8 -20 3 -20 -5 0 -12 -14 -16 -30 -4 -20 -12 -30 -22 -28 -9 2 -18 -4 -20
-12 -4 -13 -3 -13 6 0 9 13 11 13 11 -2 0 -10 -13 -40 -30 -66 -16 -27 -30
-54 -30 -61 0 -6 -3 -11 -8 -11 -4 0 -15 -18 -25 -40 -9 -22 -19 -40 -23 -40
-3 0 -2 5 1 10 3 6 1 10 -5 10 -6 0 -8 6 -4 13 4 6 3 8 -1 4 -5 -4 -10 -25
-10 -45 -1 -20 -7 -49 -15 -65 -12 -24 -11 -30 7 -50 33 -36 43 -63 43 -117 0
-104 -74 -180 -175 -180 -107 0 -181 81 -173 191 8 104 74 162 186 163 l64 1
32 62 c18 35 36 60 39 56 4 -3 7 1 7 9 0 27 43 98 59 98 12 0 13 2 3 9 -10 6
-10 10 2 21 9 7 13 16 10 21 -3 5 0 9 5 9 6 0 11 9 11 20 0 14 5 18 17 13 11
-4 14 -3 9 6 -8 12 11 71 23 71 3 0 12 -9 19 -20z m-2083 -970 c3 -5 1 -10 -4
-10 -6 0 -11 5 -11 10 0 6 2 10 4 10 3 0 8 -4 11 -10z m-4528 -115 c0 -8 -4
-12 -9 -9 -5 3 -6 10 -3 15 9 13 12 11 12 -6z m4804 -48 c-10 -9 -11 -8 -5 6
3 10 9 15 12 12 3 -3 0 -11 -7 -18z m17549 -18 c0 -5 5 -7 12 -3 7 4 8 3 4 -5
-6 -9 -11 -9 -22 0 -17 14 -18 19 -4 19 6 0 10 -5 10 -11z m-22215 -167 c-3
-3 -11 0 -18 7 -9 10 -8 11 6 5 10 -3 15 -9 12 -12z m4555 11 c0 -5 -9 -19
-20 -33 -16 -20 -19 -21 -13 -5 10 28 33 55 33 38z m-145 -23 c-3 -5 -12 -10
-18 -10 -7 0 -6 4 3 10 19 12 23 12 15 0z m175 -19 c0 -6 -4 -12 -8 -15 -5 -3
-9 1 -9 9 0 8 4 15 9 15 4 0 8 -4 8 -9z m-809 -34 c-10 -9 -11 -8 -5 6 3 10 9
15 12 12 3 -3 0 -11 -7 -18z m564 13 c-3 -5 -12 -10 -18 -10 -7 0 -6 4 3 10
19 12 23 12 15 0z m202 -12 c-3 -8 -6 -5 -6 6 -1 11 2 17 5 13 3 -3 4 -12 1
-19z m-172 2 c3 -5 1 -10 -4 -10 -6 0 -11 5 -11 10 0 6 2 10 4 10 3 0 8 -4 11
-10z m72 -152 c-3 -8 -6 -5 -6 6 -1 11 2 17 5 13 3 -3 4 -12 1 -19z m-317 -63
c0 -5 -5 -3 -10 5 -5 8 -10 20 -10 25 0 6 5 3 10 -5 5 -8 10 -19 10 -25z m40
11 c0 -2 -8 -10 -17 -17 -16 -13 -17 -12 -4 4 13 16 21 21 21 13z m224 -18
c-3 -4 -9 -8 -15 -8 -5 0 -9 4 -9 8 0 5 7 9 15 9 8 0 12 -4 9 -9z m-408 -43
c-1 -8 -5 -17 -8 -21 -5 -4 -4 16 1 34 3 9 9 -1 7 -13z m299 6 c3 -5 2 -12 -3
-15 -5 -3 -9 1 -9 9 0 17 3 19 12 6z m55 -21 c0 -5 -6 -12 -12 -16 -7 -4 -10
-4 -6 1 4 4 3 14 -4 22 -8 11 -7 12 6 7 9 -3 16 -10 16 -14z m-88 3 c-10 -4
-10 -8 -1 -19 9 -11 8 -14 -4 -14 -13 0 -15 13 -8 38 1 1 7 2 14 1 9 0 9 -2
-1 -6z m-92 -43 c0 -5 -2 -10 -4 -10 -3 0 -8 5 -11 10 -3 6 -1 10 4 10 6 0 11
-4 11 -10z m-386 -58 c3 -5 -1 -9 -9 -9 -8 0 -12 4 -9 9 3 4 7 8 9 8 2 0 6 -4
9 -8z m136 -17 c0 -7 -30 -13 -34 -7 -3 4 4 9 15 9 10 1 19 0 19 -2z m20 -29
c0 -2 -7 -7 -16 -10 -8 -3 -12 -2 -9 4 6 10 25 14 25 6z m-420 -72 c0 -8 -19
-13 -24 -6 -3 5 1 9 9 9 8 0 15 -2 15 -3z m3 -75 c-9 -9 -12 -7 -10 9 1 14 5
18 11 12 7 -7 6 -14 -1 -21z m-2979 -141 c21 -29 20 -61 -1 -86 -23 -25 -72
-34 -95 -18 -27 20 -34 71 -14 101 22 34 87 36 110 3z m-3287 -220 c-3 -7 -5
-2 -5 12 0 14 2 19 5 13 2 -7 2 -19 0 -25z m25 -6 c4 -13 -1 -18 -16 -19 -12
-1 -15 1 -8 4 6 3 12 11 12 19 0 20 7 18 12 -4z m28 -43 c0 -4 3 -14 6 -22 9
-24 -43 -16 -55 9 -8 18 -6 21 20 21 16 0 29 -4 29 -8z m38 -77 c16 -24 28
-72 18 -72 -2 0 -12 7 -21 16 -13 14 -14 19 -3 25 9 6 10 9 1 9 -7 0 -10 6 -7
14 3 8 1 17 -5 21 -6 3 -9 0 -5 -8 3 -8 2 -17 -3 -20 -10 -6 -28 14 -29 34 -2
24 34 12 54 -19z m60 -99 c14 -11 14 -13 1 -13 -9 0 -16 -7 -16 -15 0 -18 9
-19 26 -2 11 10 12 8 4 -8 -6 -11 -8 -26 -6 -32 3 -7 1 -13 -4 -13 -14 0 -44
70 -37 82 4 6 2 8 -3 5 -6 -4 -16 0 -22 7 -10 12 -8 13 8 9 14 -3 21 0 22 8 0
11 2 10 6 -1 3 -8 12 -21 21 -27z m2862 7 c0 -5 -2 -10 -4 -10 -3 0 -8 5 -11
10 -3 6 -1 10 4 10 6 0 11 -4 11 -10z m-2819 -85 c5 4 9 -3 9 -14 0 -12 4 -21
9 -21 11 0 43 -79 36 -90 -3 -4 1 -10 7 -13 7 -2 10 -8 5 -12 -12 -14 -37 28
-32 53 4 17 2 21 -6 16 -8 -4 -9 -3 -5 4 12 20 -5 35 -18 16 -12 -15 -14 -14
-24 14 -6 17 -8 41 -4 54 5 18 7 20 10 5 2 -9 8 -15 13 -12z m83 -177 c-3 -4
-12 -8 -20 -8 -8 0 -13 4 -10 8 3 5 12 9 20 9 8 0 13 -4 10 -9z m20 -23 c-7
-16 -24 -21 -24 -6 0 8 7 13 27 20 1 1 0 -6 -3 -14z m15 -42 c-12 -15 -12 -16
3 -10 9 3 22 -1 30 -10 10 -13 10 -17 0 -20 -6 -3 -10 -9 -7 -13 3 -5 13 -7
23 -4 13 5 14 4 3 -4 -13 -9 -51 -5 -51 6 0 2 8 11 18 19 16 13 15 14 -5 10
-16 -3 -27 2 -38 19 -15 23 -15 24 11 24 24 0 25 -2 13 -17z m73 -82 c4 0 5
-7 2 -15 -3 -7 2 -16 10 -19 10 -4 13 -13 9 -23 -4 -12 -3 -15 6 -10 6 4 11 4
10 -1 -4 -21 2 -34 13 -27 7 4 8 3 4 -5 -4 -6 -12 -8 -18 -5 -7 4 -8 2 -4 -4
4 -6 14 -8 23 -5 11 4 14 3 9 -5 -4 -7 -2 -12 4 -12 6 0 8 -5 4 -12 -6 -9 -9
-9 -12 0 -2 7 -8 12 -13 12 -6 0 -5 -8 1 -20 7 -13 7 -20 1 -20 -12 0 -33 69
-25 82 3 4 1 8 -4 8 -17 0 -53 42 -48 56 3 8 -1 14 -9 14 -8 0 -15 4 -15 9 0
7 20 8 52 2z m72 -182 c-4 -7 0 -9 14 -5 12 4 22 1 25 -8 4 -10 0 -12 -14 -9
-12 3 -19 0 -19 -8 -1 -9 -4 -8 -11 4 -9 16 -5 37 7 37 3 0 2 -5 -2 -11z m63
-78 c-2 -9 35 -64 52 -77 9 -7 10 -13 4 -17 -6 -4 -14 0 -17 9 -4 10 -12 14
-22 10 -13 -5 -14 -3 -6 7 8 10 5 20 -13 42 -29 33 -29 32 -11 32 8 0 14 -3
13 -6z m33 -91 c0 -5 -5 -10 -11 -10 -5 0 -7 5 -4 10 3 6 8 10 11 10 2 0 4 -4
4 -10z m48 -45 c-9 -9 -30 14 -23 25 6 9 10 8 17 -4 6 -10 8 -19 6 -21z m0
-23 c2 -7 -2 -10 -12 -6 -9 3 -16 11 -16 16 0 13 23 5 28 -10z m22 -32 c-13
-24 -16 -25 -24 -4 -3 8 -2 12 3 9 5 -3 12 -1 16 5 11 19 16 10 5 -10z m65
-74 l19 -29 -23 8 c-16 5 -21 4 -17 -4 4 -6 2 -11 -3 -11 -17 0 -13 18 5 28
15 8 15 10 0 15 -9 4 -16 1 -16 -5 0 -22 -13 2 -16 29 -4 38 6 49 20 21 7 -13
21 -36 31 -52z m24 -67 c7 -16 11 -33 7 -36 -8 -8 -37 17 -31 27 3 5 1 11 -5
15 -11 7 -4 25 8 25 4 0 13 -14 21 -31z m66 -39 c-8 -13 1 -13 23 1 12 8 25 7
47 -2 17 -7 36 -11 43 -10 6 1 12 -2 12 -7 0 -13 -55 -8 -74 7 -9 8 -19 11
-23 7 -3 -3 -1 -6 5 -6 7 0 12 -5 12 -11 0 -8 -5 -8 -15 1 -12 10 -15 10 -15
-1 0 -10 -3 -10 -12 -1 -8 8 -17 8 -31 1 -14 -8 -22 -8 -31 1 -8 8 -7 10 4 5
9 -3 24 1 35 9 24 18 28 19 20 6z m256 1 c4 0 9 -7 12 -14 6 -17 -99 -22 -109
-5 -5 7 1 9 19 4 14 -3 28 -2 32 3 3 5 -3 12 -12 14 -15 4 35 2 58 -2z m23429
-87 c0 -8 -19 -13 -24 -6 -3 5 1 9 9 9 8 0 15 -2 15 -3z m17 -69 c0 -8 -4 -12
-9 -9 -5 3 -6 10 -3 15 9 13 12 11 12 -6z m-5341 -82 c13 -16 24 -32 24 -38 0
-13 -20 -43 -20 -31 0 5 -9 -1 -19 -13 -21 -24 -26 -25 -56 -8 -11 6 -24 10
-29 9 -5 -2 -6 4 -3 12 3 8 1 16 -6 19 -9 3 -8 11 2 33 8 16 14 31 14 34 -1 3
15 6 34 8 28 2 40 -4 59 -25z m5448 -40 c4 -11 1 -11 -14 -3 -24 13 -25 17 -5
17 8 0 16 -6 19 -14z m-3 -35 c18 -16 19 -19 6 -15 -10 4 -22 7 -26 7 -4 0 -8
7 -8 15 0 19 -1 19 28 -7z m44 -38 c3 -5 1 -10 -4 -10 -6 0 -11 5 -11 10 0 6
2 10 4 10 3 0 8 -4 11 -10z m-31 -16 c3 -8 2 -12 -4 -9 -6 3 -10 10 -10 16 0
14 7 11 14 -7z m-22452 -1168 c-2 -9 1 -15 5 -14 26 9 6 -57 -23 -77 -14 -9
-23 -19 -20 -23 8 -13 -42 -6 -58 7 -9 7 -22 11 -30 8 -10 -4 -13 -1 -10 7 3
8 0 17 -5 21 -6 3 -9 11 -5 16 3 6 6 26 6 46 0 21 3 31 8 23 5 -9 13 -6 30 12
13 12 19 17 15 9 -6 -10 -4 -12 4 -7 7 5 10 14 7 22 -3 8 10 4 37 -11 26 -14
41 -29 39 -39z m30141 -306 c40 -31 52 -81 31 -125 -20 -42 -43 -57 -102 -65
l-44 -5 -239 -415 c-132 -228 -294 -508 -360 -621 -65 -114 -131 -232 -147
-262 -15 -31 -33 -56 -39 -56 -7 -1 -13 -6 -13 -12 0 -6 -7 -4 -15 5 -8 8 -15
19 -15 24 0 5 48 92 106 193 59 101 166 288 239 414 73 127 203 352 289 500
98 169 154 276 150 285 -22 51 -16 103 16 138 28 30 106 31 143 2z m-2948
-868 c-3 -3 -11 0 -18 7 -9 10 -8 11 6 5 10 -3 15 -9 12 -12z m-13252 -747
c10 -1 22 -7 27 -14 4 -7 11 -12 16 -11 5 0 11 -6 12 -15 6 -25 -7 -67 -18
-60 -6 3 -10 2 -10 -3 0 -5 -11 -14 -25 -20 -21 -10 -25 -9 -25 4 0 8 -4 13
-9 9 -15 -9 -37 20 -35 46 2 36 15 60 27 52 6 -4 8 0 4 11 -5 12 -3 15 5 9 7
-4 21 -8 31 -8z m11177 -1014 c14 -26 13 -38 -4 -44 -40 -16 -73 22 -44 51 18
18 36 15 48 -7z m5018 -257 c84 -59 41 -194 -62 -194 -91 0 -138 102 -80 177
22 29 30 33 72 33 27 0 57 -7 70 -16z m-27682 -123 c-4 -5 3 -7 15 -4 12 4 25
0 30 -8 7 -11 9 -11 9 -1 0 7 5 10 10 7 6 -4 8 -11 5 -16 -3 -5 1 -6 10 -3 11
5 14 2 9 -12 -4 -11 -4 -16 0 -12 11 10 66 -49 66 -71 0 -10 -7 -24 -15 -31
-8 -7 -12 -16 -9 -21 3 -5 0 -9 -7 -9 -7 0 -9 -3 -6 -7 4 -3 -1 -12 -11 -20
-11 -9 -11 -12 -2 -7 12 6 13 4 3 -6 -10 -11 -10 -17 0 -29 10 -12 9 -13 -3
-6 -22 14 -50 13 -50 0 0 -14 -53 -27 -75 -19 -8 4 -15 12 -15 20 0 8 -3 13
-7 13 -25 -4 -43 3 -43 16 0 9 -6 12 -17 8 -10 -4 -14 -2 -10 4 4 6 0 13 -7
16 -10 4 -13 16 -11 37 3 22 1 29 -8 23 -8 -5 -8 -2 1 9 9 11 10 18 2 23 -17
11 -11 25 11 25 18 0 19 2 9 15 -10 12 -9 15 4 15 10 0 14 4 11 10 -3 5 0 7 8
4 8 -3 18 0 22 5 3 6 10 9 14 6 5 -2 16 4 26 15 18 20 41 28 31 11z m-46 -11
c0 -5 -2 -10 -4 -10 -3 0 -8 5 -11 10 -3 6 -1 10 4 10 6 0 11 -4 11 -10z
m-5115 -168 c3 -13 10 -20 15 -17 5 3 2 -7 -6 -23 -14 -28 -47 -50 -71 -46 -7
1 -17 2 -23 3 -5 0 -10 8 -10 16 0 8 -5 15 -11 15 -6 0 -8 -7 -5 -16 3 -9 2
-12 -5 -9 -6 4 -8 13 -5 20 2 7 -1 18 -7 24 -8 8 -7 11 4 11 12 0 12 2 -1 10
-13 8 -11 13 11 34 14 13 34 26 45 28 25 5 61 -21 69 -50z m499 -364 c-5 -7
-2 -9 8 -5 41 15 66 -69 34 -114 -9 -13 -16 -17 -16 -10 0 11 -4 10 -18 -2
-28 -25 -46 -21 -65 16 -19 37 -19 77 1 77 12 0 12 3 1 17 -12 15 -12 16 4 10
9 -3 17 -2 17 4 0 6 5 7 10 4 6 -3 10 -1 10 4 0 6 5 11 11 11 5 0 7 -5 3 -12z
m-2196 -353 c-3 -13 0 -22 8 -22 7 0 10 6 7 12 -5 14 24 28 31 16 3 -5 17 -8
31 -8 18 0 25 4 21 13 -4 10 2 9 21 -3 15 -10 24 -13 20 -6 -4 6 -3 14 3 18 5
3 10 0 10 -8 0 -8 8 -21 17 -28 11 -10 14 -10 9 -1 -4 6 -2 12 4 12 6 0 15
-11 20 -25 10 -26 24 -32 35 -15 3 6 -1 7 -9 4 -9 -3 -16 -2 -16 4 0 6 8 9 18
7 9 -2 21 -4 27 -4 5 -1 4 -6 -2 -12 -7 -7 -8 -21 -3 -39 6 -19 4 -30 -3 -33
-6 -2 -1 -6 12 -10 16 -4 21 -2 17 8 -2 7 1 16 9 19 10 3 12 0 8 -11 -4 -10
-2 -14 4 -10 11 7 28 -22 18 -31 -3 -3 -5 0 -5 6 0 7 -4 12 -9 12 -5 0 -7 -9
-4 -19 3 -13 10 -18 21 -14 10 4 13 2 8 -5 -4 -7 -3 -12 2 -12 6 0 8 -9 5 -21
-4 -12 -11 -18 -20 -15 -8 4 -11 1 -8 -5 4 -6 13 -8 21 -5 8 3 14 -1 14 -10 0
-9 5 -12 13 -8 8 5 8 3 -2 -9 -7 -9 -17 -15 -21 -12 -4 3 -14 -3 -21 -13 -13
-15 -12 -16 3 -4 9 7 19 9 22 4 6 -10 1 -46 -9 -63 -4 -6 1 -16 11 -23 11 -8
13 -15 6 -20 -6 -3 -18 1 -27 10 -15 15 -15 14 -9 -9 4 -17 1 -32 -9 -41 -8
-8 -16 -14 -18 -13 -3 1 1 -3 8 -9 17 -15 3 -27 -14 -12 -8 6 -13 7 -12 2 1
-5 1 -16 -1 -24 -1 -11 -4 -9 -10 5 -8 18 -9 17 -9 -8 -1 -18 3 -26 10 -21 8
5 8 1 0 -14 -6 -12 -19 -25 -28 -30 -28 -16 -71 6 -44 22 5 4 12 0 14 -6 4 -9
6 -10 6 -1 1 19 -16 24 -29 8 -10 -12 -10 -18 1 -31 12 -14 11 -16 -6 -12 -11
2 -18 11 -17 19 2 8 0 10 -5 6 -4 -5 -8 -16 -8 -24 0 -9 -6 -18 -14 -21 -8 -3
-11 0 -7 7 4 6 2 11 -4 11 -6 0 -8 5 -5 10 3 6 1 10 -5 10 -7 0 -9 -8 -5 -20
4 -11 2 -20 -4 -20 -6 0 -11 8 -11 18 0 13 -2 14 -9 4 -4 -7 -12 -12 -17 -11
-19 3 -34 -1 -34 -12 0 -5 6 -7 13 -3 9 6 9 4 0 -6 -11 -12 -15 -11 -28 6 -8
10 -12 25 -10 32 3 7 0 10 -6 7 -6 -4 -8 -14 -4 -23 5 -13 2 -13 -14 2 -12 11
-29 16 -41 13 -11 -3 -18 -1 -15 3 3 5 -3 14 -14 19 -25 14 -34 14 -26 1 3 -6
-1 -7 -10 -3 -13 5 -14 7 -3 14 7 5 9 9 3 9 -5 0 -3 4 5 9 9 7 2 9 -24 7 -31
-3 -36 -1 -31 13 7 18 8 21 6 39 0 7 -5 11 -11 7 -5 -3 -6 -13 -3 -23 4 -11
-1 -9 -15 7 -23 25 -28 36 -14 27 10 -6 38 11 30 19 -3 3 -15 7 -25 8 -14 1
-20 8 -19 22 1 11 -4 26 -11 33 -9 10 -10 19 -3 32 14 26 12 46 -5 64 -9 9
-11 17 -5 21 5 3 10 1 10 -4 0 -6 8 -11 18 -11 15 0 15 2 2 11 -11 8 -12 12
-2 16 6 2 9 10 6 15 -4 6 -8 22 -10 35 -2 18 2 23 12 19 8 -3 14 -1 14 4 0 5
8 7 18 4 16 -5 16 -5 0 6 -11 6 -15 17 -11 28 6 15 5 16 -13 2 -17 -14 -18
-14 -6 2 8 9 19 15 26 12 18 -7 38 40 23 55 -8 8 -8 11 1 11 7 0 12 -4 12 -9
0 -5 9 -7 20 -4 11 3 20 12 20 19 0 8 5 14 11 14 6 0 8 -7 5 -16 -5 -12 -1
-14 17 -9 12 4 27 13 33 21 15 19 28 18 20 -1 -3 -8 -2 -15 3 -15 12 0 23 48
15 62 -5 7 -2 8 5 3 7 -4 11 -17 9 -30z m71 26 c10 -6 10 -10 1 -16 -7 -4 -19
0 -28 9 -14 13 -14 16 -2 16 8 0 21 -4 29 -9z m286 -231 c-3 -5 -1 -10 6 -10
7 0 10 -3 6 -6 -9 -9 -28 6 -22 17 4 5 8 9 11 9 3 0 2 -4 -1 -10z m7 -92 c-3
-14 -1 -19 6 -14 15 9 3 -26 -12 -36 -18 -12 -31 -9 -18 4 7 7 12 25 12 40 0
15 4 28 9 28 5 0 7 -10 3 -22z m-622 -80 c10 -21 10 -21 -3 -6 -8 10 -18 14
-22 10 -5 -4 -5 -1 -1 6 10 17 14 15 26 -10z m32437 -34 c3 -8 2 -23 -3 -33
-7 -15 -14 -17 -31 -10 -22 8 -31 38 -16 52 12 13 44 7 50 -9z m-691 -46 c9
-15 -5 -58 -20 -58 -7 0 -21 9 -30 19 -14 16 -15 23 -5 39 12 19 43 20 55 0z
m-31626 -118 c0 -5 -2 -10 -4 -10 -3 0 -8 5 -11 10 -3 6 -1 10 4 10 6 0 11 -4
11 -10z m1736 -543 c8 3 21 0 29 -7 8 -7 15 -9 15 -4 0 4 5 3 11 -3 13 -13 19
-93 7 -93 -5 0 -6 -4 -3 -10 3 -5 -1 -10 -10 -10 -10 0 -13 -5 -9 -12 4 -7 4
-10 0 -6 -5 4 -18 3 -31 -2 -33 -13 -65 -1 -77 29 -16 39 -20 71 -8 71 5 0 10
9 10 20 0 13 5 18 15 14 9 -4 18 1 22 12 4 10 8 13 10 7 3 -7 11 -9 19 -6z
m16173 -351 c9 -10 8 -16 -4 -26 -8 -7 -13 -16 -10 -20 2 -4 -6 -21 -19 -39
-13 -18 -30 -46 -36 -62 -7 -16 -17 -29 -22 -29 -5 0 -7 -4 -4 -9 3 -4 -3 -16
-14 -26 -11 -10 -17 -21 -15 -25 3 -4 -9 -26 -25 -49 -17 -22 -27 -41 -23 -41
5 0 1 -6 -8 -13 -9 -7 -16 -16 -17 -20 -1 -8 -111 -204 -144 -255 -9 -15 -27
-46 -39 -70 -12 -24 -28 -46 -35 -49 -8 -3 -12 -9 -9 -13 6 -10 -69 -142 -77
-134 -3 3 -9 0 -14 -7 -4 -8 -3 -10 4 -5 18 11 14 -1 -15 -47 -39 -60 -60 -98
-73 -129 -7 -16 -16 -25 -21 -22 -5 3 -6 -2 -3 -10 3 -9 -3 -19 -16 -26 -11
-6 -19 -19 -18 -28 2 -11 -3 -16 -15 -16 -13 2 -15 -1 -7 -11 8 -9 7 -17 -3
-26 -7 -8 -14 -18 -16 -24 -6 -28 -73 -135 -81 -130 -6 4 -7 -2 -3 -11 5 -13
3 -15 -7 -9 -10 6 -12 4 -7 -8 3 -8 -1 -21 -9 -27 -8 -7 -14 -21 -14 -32 0
-10 -4 -16 -10 -13 -5 3 -11 1 -11 -4 -4 -34 -41 -101 -51 -95 -5 3 -8 0 -6
-7 2 -14 -46 -103 -69 -127 -7 -7 -13 -20 -13 -28 0 -9 -5 -12 -12 -8 -7 4 -8
3 -4 -4 8 -14 -64 -143 -76 -136 -4 3 -5 -1 -3 -8 3 -8 -2 -22 -11 -33 -8 -11
-12 -14 -8 -6 5 10 3 12 -5 7 -7 -5 -10 -14 -7 -22 3 -8 2 -14 -3 -14 -4 0 -8
-6 -8 -12 0 -19 -75 -139 -89 -145 -7 -2 -10 -11 -7 -19 3 -8 0 -14 -6 -14 -6
0 -10 -3 -10 -7 4 -27 -3 -35 -26 -31 -26 5 -36 -14 -13 -28 7 -4 8 -3 4 4 -4
7 -2 12 3 12 6 0 11 -3 11 -8 0 -11 -51 -85 -69 -100 -9 -8 -11 -11 -4 -8 6 3
0 -16 -13 -44 -13 -27 -27 -50 -32 -50 -4 0 -13 -9 -20 -21 -8 -12 -9 -18 -3
-15 6 4 3 -7 -7 -23 -9 -17 -21 -31 -25 -31 -5 0 -6 -4 -3 -9 3 -4 -1 -17 -9
-27 -12 -15 -16 -16 -24 -5 -6 9 -11 10 -15 2 -4 -6 -2 -11 3 -11 6 0 11 -7
11 -16 0 -10 -6 -14 -15 -11 -8 4 -17 2 -20 -3 -4 -6 1 -10 10 -10 9 0 14 -4
10 -9 -3 -6 -128 -9 -305 -8 -237 2 -300 -1 -300 -11 0 -8 -9 -10 -27 -6 -26
6 -27 5 -9 -8 19 -15 18 -18 -28 -92 -27 -42 -52 -76 -58 -76 -5 0 -6 5 -2 12
4 7 3 8 -5 4 -9 -6 -9 -11 0 -22 12 -14 7 -25 -28 -62 -7 -7 -13 -21 -14 -30
0 -11 -2 -12 -6 -4 -2 6 -9 12 -14 12 -6 0 -6 -7 0 -18 7 -13 4 -24 -11 -42
-11 -14 -16 -19 -12 -11 5 9 3 12 -4 7 -8 -4 -12 0 -12 11 0 15 -2 16 -10 3
-5 -8 -10 -10 -10 -4 0 16 25 35 35 26 5 -4 6 0 3 8 -8 22 10 63 24 54 8 -5 9
-2 5 9 -4 10 -1 17 5 17 6 0 9 3 5 6 -6 7 51 104 62 104 4 0 12 -5 19 -12 8
-8 12 -8 12 -1 0 6 -6 13 -14 16 -11 5 -5 22 27 80 l42 73 104 2 c84 1 101 -1
92 -12 -8 -10 -6 -12 9 -11 11 1 23 5 27 10 5 4 2 5 -4 1 -7 -4 -13 -3 -13 3
0 6 44 9 113 8 89 0 115 -4 125 -16 11 -14 11 -14 6 2 -4 12 -1 17 11 17 10 0
13 -4 9 -12 -6 -10 -5 -10 7 -1 9 7 31 12 50 12 58 -2 80 1 75 10 -3 5 7 23
23 40 15 16 26 32 24 35 -6 5 27 69 39 77 5 3 10 10 9 15 0 13 90 168 101 172
4 2 8 10 8 17 0 8 7 18 15 22 8 5 16 17 18 28 1 11 10 31 18 45 9 14 33 55 53
93 20 37 41 67 46 67 6 0 9 3 8 8 -3 15 16 48 41 71 14 13 20 20 14 17 -7 -4
-13 -5 -13 -1 0 9 33 59 45 67 5 4 7 8 2 8 -11 0 22 60 33 60 6 0 9 3 8 8 -5
14 76 152 90 152 7 0 10 5 7 10 -4 6 20 56 52 111 32 55 64 111 71 124 7 14
18 25 24 25 6 0 8 3 5 6 -6 6 19 60 33 74 3 3 21 34 39 70 19 36 39 72 45 80
13 18 31 49 64 110 49 92 56 100 74 94 10 -3 18 0 18 6 0 6 -4 8 -10 5 -5 -3
-10 3 -10 15 0 11 7 23 15 26 8 4 15 12 15 19 0 16 39 87 53 96 5 3 8 9 7 13
-2 12 93 176 102 176 5 0 7 4 4 8 -3 5 4 19 15 30 10 12 18 23 17 24 -1 2 9
25 22 51 14 29 29 46 37 43 7 -3 15 -1 18 4 3 4 0 10 -6 12 -6 2 -2 19 12 45
12 23 27 39 32 36 6 -3 7 -1 3 5 -4 6 11 41 34 78 22 36 40 68 40 70 0 11 51
84 59 84 5 0 14 -6 20 -14z m-18570 -399 c8 -10 7 -14 -2 -14 -8 0 -14 6 -14
14 0 7 1 13 2 13 2 0 8 -6 14 -13z m-44 -7 c-3 -5 -14 -10 -23 -9 -14 0 -13 2
3 9 27 11 27 11 20 0z m65 -24 c0 -2 -9 -6 -20 -9 -11 -3 -18 -1 -14 4 5 9 34
13 34 5z m33464 -2 c9 -3 16 -17 16 -31 0 -21 -4 -24 -27 -21 -31 3 -44 35
-21 49 16 11 13 10 32 3z m-33454 -49 c14 -19 14 -19 -2 -6 -10 7 -18 18 -18
24 0 6 1 8 3 6 1 -2 9 -13 17 -24z m31734 -198 c-2 -7 4 -13 16 -14 22 -2 22
15 0 35 -13 11 -12 11 7 3 14 -7 20 -18 18 -30 -2 -11 3 -27 11 -38 9 -10 12
-12 8 -4 -5 9 -3 12 5 7 6 -4 9 -11 6 -16 -3 -5 -1 -20 5 -34 7 -19 6 -26 -2
-26 -9 0 -9 -3 -1 -11 13 -13 -9 -64 -32 -73 -9 -3 -12 -12 -9 -23 4 -14 4
-15 -4 -4 -7 9 -12 10 -16 2 -4 -6 -12 -8 -18 -5 -6 4 -14 0 -19 -7 -7 -12 -9
-12 -9 0 0 10 -3 11 -14 2 -9 -8 -16 -8 -20 -2 -4 6 -14 7 -24 4 -9 -3 -14 -2
-10 2 5 5 -2 13 -14 19 -29 15 -59 68 -44 78 8 5 7 8 -2 8 -10 0 -10 5 -2 20
6 11 8 25 5 30 -3 6 -1 10 5 10 6 0 9 4 6 9 -3 5 0 11 8 14 8 3 20 18 28 34
11 23 19 28 46 27 17 -1 32 2 32 7 0 6 8 5 20 -1 10 -6 17 -16 14 -23z
m-31616 -7 c-7 -10 -14 -17 -17 -15 -4 4 18 35 25 35 2 0 -1 -9 -8 -20z m52
-90 c0 -5 -2 -10 -4 -10 -3 0 -8 5 -11 10 -3 6 -1 10 4 10 6 0 11 -4 11 -10z
m33695 -330 c3 -6 -1 -7 -9 -4 -18 7 -21 14 -7 14 6 0 13 -4 16 -10z m-33330
-308 c-3 -3 -11 0 -18 7 -9 10 -8 11 6 5 10 -3 15 -9 12 -12z m125 -167 c0 -8
-2 -15 -4 -15 -2 0 -6 7 -10 15 -3 8 -1 15 4 15 6 0 10 -7 10 -15z m20408 -11
c24 -17 29 -43 10 -62 -7 -7 -8 -12 -2 -12 5 0 3 -4 -5 -9 -8 -5 -26 -5 -42 1
-34 12 -40 50 -12 80 20 22 23 22 51 2z m-15887 -106 c52 -18 87 -48 109 -93
37 -77 15 -167 -56 -221 -35 -27 -44 -29 -127 -30 -77 -1 -91 -3 -93 -18 -2
-13 1 -14 10 -7 9 8 13 7 13 -4 0 -8 -7 -15 -16 -15 -14 0 -14 -2 -1 -10 21
-13 3 -12 -22 1 -21 11 -21 12 -3 25 10 8 15 14 11 14 -5 0 -3 6 4 14 6 8 19
12 28 9 9 -4 2 6 -17 22 -86 74 -92 194 -14 270 52 51 110 65 174 43z m-161
-423 c0 -12 -19 -12 -23 0 -4 9 -1 12 9 8 7 -3 14 -7 14 -8z m-30 -18 c0 -8
-3 -8 -9 2 -5 8 -11 9 -15 3 -3 -6 0 -17 8 -25 9 -9 11 -19 5 -28 -7 -11 -9
-11 -9 4 0 9 -4 17 -8 17 -4 0 -8 -8 -9 -17 -3 -41 -22 -93 -34 -93 -6 0 -8
-4 -5 -9 3 -5 -2 -15 -11 -22 -15 -12 -16 -12 -10 4 4 9 2 17 -4 17 -7 0 -9
-10 -5 -25 6 -23 -6 -36 -17 -17 -4 8 3 -17 10 -35 3 -7 1 -13 -5 -13 -5 0
-13 11 -16 25 -7 28 18 75 40 75 7 0 16 5 20 12 5 8 2 9 -9 5 -10 -3 -17 -2
-17 3 0 6 5 11 10 11 6 1 15 2 20 3 6 0 9 6 8 11 -2 6 -6 9 -9 8 -13 -4 3 35
22 56 11 12 17 21 13 21 -3 0 -1 7 6 15 13 16 30 11 30 -8z m29577 -49 c-3 -8
-6 -5 -6 6 -1 11 2 17 5 13 3 -3 4 -12 1 -19z m-29726 -175 c-11 -4 -11 -7 0
-14 7 -4 10 -11 6 -16 -9 -9 -28 17 -21 29 3 4 11 8 17 7 8 0 7 -3 -2 -6z
m29829 -3 c0 -5 -5 -10 -11 -10 -5 0 -7 5 -4 10 3 6 8 10 11 10 2 0 4 -4 4
-10z m-29829 -45 c5 4 9 1 9 -4 0 -6 -8 -11 -19 -11 -26 0 -41 -22 -34 -48 3
-14 1 -22 -7 -22 -7 0 -10 6 -7 14 3 8 1 16 -4 18 -6 2 0 15 13 29 13 14 22
32 20 40 -2 8 2 6 8 -4 6 -9 15 -15 21 -12z m29830 8 c13 -16 12 -17 -3 -4
-10 7 -18 15 -18 17 0 8 8 3 21 -13z m-29837 -48 c-7 -16 -24 -21 -24 -6 0 8
7 13 27 20 1 1 0 -6 -3 -14z m29916 -43 c0 -12 -3 -12 -15 -2 -8 7 -15 13 -15
15 0 1 7 2 15 2 8 0 15 -7 15 -15z m-29986 -6 c-4 -11 0 -13 18 -10 21 5 22 4
6 -9 -10 -8 -15 -16 -12 -20 3 -3 -5 -25 -17 -49 -13 -25 -24 -37 -27 -29 -2
7 2 17 9 22 8 5 9 9 4 9 -6 0 -16 -5 -23 -12 -9 -9 -12 -9 -12 -1 0 7 4 14 10
18 5 3 7 12 4 19 -3 7 3 19 12 27 16 13 17 12 10 -13 -4 -18 -2 -28 4 -28 6 0
9 4 5 9 -3 5 -1 12 5 16 7 4 7 13 0 26 -6 11 -8 24 -5 29 9 15 15 12 9 -4z
m30061 -116 c16 -17 16 -20 3 -15 -9 4 -19 13 -22 21 -7 19 -2 18 19 -6z
m-30112 -50 c-3 -3 -8 1 -10 8 -3 6 -9 12 -14 12 -6 0 -8 -4 -5 -8 3 -5 -1 -9
-9 -9 -13 0 -12 3 1 19 16 17 18 17 30 0 7 -9 10 -19 7 -22z m30107 24 c0 -8
-19 -13 -24 -6 -3 5 1 9 9 9 8 0 15 -2 15 -3z m-30145 -44 c-3 -5 -2 -10 4
-10 5 0 11 6 14 13 2 6 8 9 12 5 4 -4 -4 -18 -18 -32 -15 -14 -24 -26 -21 -26
3 0 -4 -9 -15 -21 -11 -12 -17 -28 -14 -36 3 -7 -1 -19 -10 -26 -8 -7 -18 -25
-21 -41 -5 -19 -10 -26 -15 -18 -5 9 -12 9 -27 -2 -10 -8 -15 -18 -11 -22 4
-5 12 -2 17 6 8 12 10 10 10 -7 0 -15 -5 -21 -14 -17 -8 3 -17 0 -22 -7 -5 -8
-3 -10 7 -5 8 4 5 0 -6 -9 -17 -14 -18 -17 -5 -25 10 -7 11 -10 3 -10 -7 0
-13 -7 -13 -16 0 -8 -11 -32 -25 -52 -14 -20 -25 -40 -25 -45 0 -4 -15 -22
-32 -39 -18 -17 -25 -28 -16 -25 15 5 16 4 6 -13 -8 -12 -15 -15 -19 -9 -4 7
-8 5 -12 -5 -3 -8 -1 -17 6 -20 7 -3 3 -4 -8 -3 -12 1 -19 -3 -17 -11 1 -8 -2
-11 -8 -7 -5 3 -10 13 -10 21 0 8 5 12 10 9 6 -3 10 0 10 7 0 7 11 26 25 41
14 15 21 27 15 27 -16 0 -12 16 11 41 11 13 18 19 15 14 -2 -6 -1 -17 5 -25 6
-11 9 -8 9 13 0 16 5 26 13 25 6 -2 11 3 10 10 -2 6 2 12 8 12 8 0 8 4 1 13
-14 17 -6 50 23 93 14 20 25 41 25 45 0 5 7 9 15 9 8 0 15 5 15 11 0 5 4 8 9
5 8 -6 25 30 22 47 -1 5 4 5 10 1 8 -5 9 -3 4 6 -6 10 -12 7 -26 -11 -24 -31
-24 -23 1 29 12 24 25 40 30 37 6 -3 7 1 4 10 -4 10 -2 15 7 13 8 -2 15 4 15
12 3 28 4 30 15 30 5 0 7 -4 4 -10z m30179 -25 c3 -8 1 -15 -4 -15 -6 0 -10 7
-10 15 0 8 2 15 4 15 2 0 6 -7 10 -15z m-4845 -232 c-4 -22 3 -33 19 -33 15
-1 15 -2 -2 -11 -14 -9 -20 -8 -27 2 -4 7 -5 17 -3 21 3 4 -1 8 -8 8 -9 0 -9
3 2 10 18 12 20 12 19 3z m-13776 -16 c2 -6 -6 -27 -18 -45 -15 -22 -25 -29
-28 -20 -3 7 -6 0 -6 -16 -1 -29 -2 -29 -16 -10 -14 18 -14 17 -5 -10 9 -25 5
-37 -37 -105 -26 -42 -50 -78 -53 -81 -4 -3 -9 -13 -13 -22 -3 -10 -11 -18
-17 -18 -6 0 -8 6 -4 13 5 9 3 9 -7 -1 -12 -11 -12 -14 1 -22 10 -7 11 -10 3
-10 -7 0 -12 -6 -10 -12 1 -7 -4 -12 -11 -10 -8 1 -11 -2 -7 -8 9 -15 -38 -90
-55 -87 -10 1 -14 -5 -12 -17 4 -23 -17 -66 -33 -66 -6 0 -20 -7 -31 -16 -18
-15 -18 -15 3 -5 12 6 24 11 27 11 8 0 -54 -104 -66 -111 -5 -3 -10 -10 -10
-15 0 -5 -4 -8 -10 -6 -5 1 -7 -1 -4 -6 3 -5 -9 -31 -26 -58 -18 -27 -31 -52
-30 -56 1 -5 -4 -7 -11 -5 -6 1 -12 -5 -12 -14 0 -22 -26 -69 -37 -69 -5 0 -7
-4 -3 -9 3 -6 -2 -14 -11 -19 -9 -5 -17 -13 -17 -18 -1 -5 -6 -8 -10 -6 -5 1
-6 -2 -2 -8 7 -11 -25 -70 -38 -70 -4 0 -5 -5 -1 -12 5 -7 2 -9 -8 -5 -12 4
-14 1 -11 -14 3 -11 0 -19 -7 -19 -7 0 -2 -17 14 -44 40 -69 43 -116 12 -180
-30 -62 -69 -92 -133 -102 -105 -17 -203 69 -203 178 0 117 123 207 231 169
30 -10 35 -9 56 16 12 16 22 32 23 36 0 4 32 61 71 126 61 103 74 118 92 114
22 -5 22 -5 2 11 -11 10 -14 14 -6 10 11 -5 13 -3 8 9 -3 10 -2 17 3 17 6 0
10 6 10 14 0 7 12 26 28 41 15 16 20 24 12 20 -11 -7 -10 -2 4 20 10 15 27 43
38 62 11 18 25 30 31 26 6 -4 8 0 5 9 -4 8 -2 21 3 29 8 12 12 11 24 -5 8 -11
15 -16 15 -11 0 5 -6 16 -14 24 -13 14 -12 19 6 41 11 14 16 19 12 11 -5 -9
-3 -12 5 -7 6 4 9 11 6 16 -6 9 33 72 48 78 4 2 5 8 2 13 -6 8 23 55 52 87 7
7 16 24 19 38 3 13 10 21 15 18 5 -3 9 2 9 10 0 8 17 42 38 76 20 33 42 69 47
78 21 36 27 42 40 42 7 0 15 -6 18 -13z m13723 -42 c10 -25 -3 -44 -25 -38
-20 5 -28 32 -14 46 11 12 33 7 39 -8z m-25476 -29 c0 -2 -7 -7 -16 -10 -8 -3
-12 -2 -9 4 6 10 25 14 25 6z m20790 -195 c36 -36 46 -73 30 -112 -19 -44 -56
-69 -104 -69 -53 0 -82 21 -97 69 -24 79 22 140 104 141 29 0 45 -7 67 -29z
m-20880 -21 c0 -5 -5 -10 -11 -10 -5 0 -7 5 -4 10 3 6 8 10 11 10 2 0 4 -4 4
-10z m-35 -9 c-3 -5 1 -11 8 -13 11 -2 12 -8 2 -32 -12 -29 -12 -29 -24 -7
-13 23 -6 61 10 61 6 0 8 -4 4 -9z m-25 -51 c0 -5 -4 -10 -10 -10 -5 0 -10 5
-10 10 0 6 5 10 10 10 6 0 10 -4 10 -10z m4 -28 c-5 -4 -12 -11 -15 -15 -3 -5
-9 -2 -12 5 -3 9 3 14 15 15 11 1 16 -1 12 -5z m-49 -73 c-4 -5 -13 -9 -21 -9
-12 0 -12 2 -2 14 14 15 32 11 23 -5z m-37 -56 c-7 -9 -7 -13 0 -13 7 0 6 -12
-3 -34 -8 -18 -11 -37 -7 -41 4 -5 2 -5 -5 -1 -6 3 -14 2 -18 -4 -6 -9 8 -14
28 -11 5 1 6 -3 2 -9 -3 -5 1 -13 9 -16 13 -5 13 -8 1 -20 -7 -8 -20 -14 -27
-13 -10 0 -10 2 0 6 19 7 14 31 -9 43 -15 9 -18 15 -10 24 6 7 7 17 3 21 -4 5
-1 5 6 1 18 -11 15 5 -5 20 -17 13 -17 14 1 7 14 -4 17 -3 12 6 -5 7 -2 26 5
42 8 21 14 27 20 18 4 -8 3 -19 -3 -26z m32 27 c0 -5 -2 -10 -4 -10 -3 0 -8 5
-11 10 -3 6 -1 10 4 10 6 0 11 -4 11 -10z m-50 -162 c0 -4 -4 -8 -9 -8 -6 0
-12 4 -15 8 -3 5 1 9 9 9 8 0 15 -4 15 -9z m30 -48 c0 -5 6 -10 14 -10 17 0
37 -23 41 -47 1 -10 8 -17 15 -15 6 1 9 -2 6 -7 -4 -5 -1 -11 6 -13 9 -3 9 -6
1 -11 -7 -4 -20 8 -33 28 -12 19 -26 33 -30 30 -5 -3 -11 -1 -15 5 -3 5 2 10
12 11 15 0 14 2 -3 9 -25 10 -41 30 -25 30 6 0 11 -4 11 -10z m123 -169 c9
-12 9 -13 0 -7 -7 4 -13 2 -13 -3 0 -6 4 -11 8 -11 5 0 17 -7 28 -15 16 -12
16 -14 2 -9 -15 5 -17 1 -14 -22 2 -16 1 -23 -1 -16 -2 6 -9 12 -14 12 -6 0
-7 5 -4 10 3 6 1 10 -4 10 -6 0 -11 15 -11 34 0 19 -7 41 -15 49 -11 12 -12
16 -2 20 6 2 16 -5 20 -17 4 -11 13 -27 20 -35z m78 -125 c12 -23 15 -35 7
-30 -7 5 -20 7 -30 6 -9 -2 -20 2 -24 9 -5 8 -3 10 7 5 8 -4 5 0 -5 8 -15 12
-16 16 -5 16 8 0 20 -5 27 -12 9 -9 12 -9 12 -1 0 7 -10 15 -21 18 -17 6 -19
9 -8 16 11 7 11 9 1 9 -7 0 -10 5 -6 11 7 13 14 5 45 -55z m3 -57 c-2 -4 3
-10 12 -13 12 -5 15 -2 10 9 -3 9 -2 13 4 10 6 -3 10 -11 10 -17 0 -6 8 -20
17 -30 16 -18 16 -18 -1 -12 -16 6 -17 2 -13 -28 4 -31 2 -35 -17 -33 -16 2
-21 -3 -23 -23 l-1 -27 14 25 c8 15 13 19 13 10 1 -20 -13 -42 -25 -39 -20 3
-28 -2 -16 -10 10 -6 11 -13 1 -34 -10 -22 -17 -26 -38 -21 -22 4 -23 4 -8 -6
19 -12 23 -30 6 -30 -5 0 -7 5 -4 10 3 6 2 10 -4 10 -5 0 -11 -5 -13 -12 -3
-9 -6 -9 -12 0 -3 6 2 20 14 32 11 11 21 23 23 28 1 4 6 6 11 4 5 -2 4 3 -2
11 -10 12 -7 18 13 31 14 9 23 21 19 27 -3 6 6 28 20 49 28 42 32 55 16 45 -5
-3 -10 -1 -10 5 0 7 -7 9 -16 6 -8 -3 -13 -2 -9 3 3 5 0 11 -7 13 -7 3 -9 12
-4 23 6 16 9 17 16 5 5 -8 7 -17 4 -21z m1796 -285 c0 5 7 3 15 -4 8 -7 12
-16 9 -21 -3 -5 -2 -9 3 -8 22 4 33 -3 33 -19 0 -10 5 -23 12 -30 9 -9 9 -12
0 -12 -10 0 -10 -5 -2 -20 8 -16 8 -20 -2 -18 -8 2 -12 -5 -10 -16 3 -13 -1
-17 -12 -13 -10 4 -13 1 -10 -8 8 -19 -90 -41 -109 -24 -7 5 -21 17 -32 25
-11 9 -14 13 -8 9 9 -4 11 -1 7 9 -3 9 -10 13 -15 10 -5 -3 -9 1 -9 10 0 8 -5
16 -11 18 -8 3 -6 10 5 21 10 9 13 17 7 17 -6 0 -8 7 -4 16 3 8 11 13 18 10 7
-2 12 3 11 12 0 9 4 16 11 15 8 -2 10 4 6 15 -6 15 -5 15 10 3 10 -8 17 -9 17
-3 0 14 43 20 52 7 4 -5 8 -6 8 -1z m-1884 -5 c4 -8 9 -7 15 2 7 11 9 11 9 1
0 -7 -7 -15 -15 -18 -8 -4 -12 -10 -9 -15 3 -5 1 -9 -4 -9 -5 0 -12 11 -14 25
-5 26 5 34 18 14z m-33 -37 c-3 -12 -9 -19 -14 -16 -5 3 -3 14 3 24 15 24 19
21 11 -8z m8 -35 c-10 -9 -11 -8 -5 6 3 10 9 15 12 12 3 -3 0 -11 -7 -18z
m-26 -10 c1 -7 7 -10 15 -9 8 2 11 0 7 -5 -5 -4 -14 -8 -20 -8 -7 0 -12 -10
-11 -22 0 -18 -3 -20 -18 -12 -23 12 -24 0 0 -17 16 -13 16 -14 -3 -7 -17 6
-18 5 -7 -9 15 -19 0 -34 -20 -22 -9 5 -9 2 1 -9 12 -15 11 -17 -3 -17 -9 0
-16 -7 -16 -15 0 -8 -5 -15 -11 -15 -5 0 -7 5 -3 12 5 7 3 8 -5 4 -7 -5 -10
-15 -7 -23 3 -8 1 -11 -4 -8 -6 3 -10 -1 -10 -9 0 -9 5 -16 10 -16 16 0 11
-19 -10 -37 -11 -10 -20 -23 -20 -30 0 -21 -16 -22 -29 -1 -10 16 -10 18 0 12
9 -5 11 -2 6 9 -4 11 -2 14 9 10 16 -6 46 15 39 28 -3 4 -13 5 -22 2 -18 -7
-18 -5 22 64 19 33 37 53 48 53 10 0 15 5 12 10 -4 6 -11 7 -17 4 -5 -4 -3 5
7 19 9 14 23 28 31 31 8 3 14 10 14 16 0 6 -6 8 -12 5 -7 -4 -5 0 4 8 10 8 16
17 13 20 -3 4 -2 4 3 1 4 -3 7 -11 7 -17z m-165 -287 c0 -5 -2 -10 -4 -10 -3
0 -8 5 -11 10 -3 6 -1 10 4 10 6 0 11 -4 11 -10z m0 -44 c0 -2 -9 -2 -20 1
-11 3 -20 9 -20 15 0 5 9 4 20 -2 11 -6 20 -12 20 -14z m-24 -22 c-3 -9 -6
-20 -6 -25 0 -5 -9 -9 -21 -9 -11 0 -17 -4 -14 -10 3 -5 1 -10 -4 -10 -14 0
-14 16 -1 40 7 12 16 17 27 13 11 -4 14 -3 9 5 -4 7 -2 12 4 12 7 0 9 -7 6
-16z m-61 -95 c1 -25 -1 -28 -11 -15 -6 9 -14 12 -18 8 -4 -4 -2 5 5 21 15 32
23 27 24 -14z m30 21 c3 -5 1 -10 -4 -10 -6 0 -11 5 -11 10 0 6 2 10 4 10 3 0
8 -4 11 -10z m-61 -55 c-4 -8 -1 -15 5 -15 6 0 11 -6 11 -13 0 -17 -36 -47
-46 -39 -4 4 -4 -2 0 -12 4 -12 2 -23 -6 -27 -7 -5 -13 -16 -13 -26 0 -21 -26
-24 -33 -4 -3 9 0 11 8 6 8 -5 11 0 8 16 -2 15 2 23 10 22 6 -2 12 2 12 7 0 5
-5 10 -12 10 -6 0 -8 3 -4 8 4 4 13 7 18 7 6 0 12 13 12 28 1 16 8 32 16 37
20 13 20 12 14 -5z m15707 -142 c15 -40 -39 -74 -78 -50 -17 10 -17 49 -1 65
19 19 70 9 79 -15z m-15776 -33 c-3 -5 -14 -10 -23 -10 -15 0 -15 2 -2 10 20
13 33 13 25 0z m-17 -35 c3 -3 0 -5 -7 -5 -7 0 -9 -5 -5 -11 4 -8 0 -8 -15 0
-14 8 -21 8 -21 1 0 -5 5 -10 10 -10 6 0 10 -5 10 -11 0 -7 -9 -9 -22 -6 -22
6 -22 6 -4 -8 11 -8 15 -15 8 -15 -6 0 -14 -11 -18 -25 -3 -14 -10 -25 -16
-25 -5 0 -7 -4 -3 -9 3 -5 1 -12 -4 -15 -5 -3 -12 2 -15 11 -6 14 -8 14 -22
-3 -10 -13 -10 -9 2 13 10 18 25 32 34 30 10 -1 15 7 16 28 1 45 20 75 45 70
12 -3 24 -7 27 -10z m20682 -156 c5 10 8 9 13 -1 3 -8 0 -15 -6 -15 -7 0 -19
-2 -27 -4 -9 -3 -15 5 -17 21 -2 22 -2 23 6 5 9 -19 10 -18 12 5 l2 25 4 -24
c3 -16 7 -20 13 -12z m35 -54 c27 -26 32 -45 13 -45 -7 0 2 -14 20 -31 39 -36
40 -41 6 -36 -32 4 -42 20 -38 63 2 25 -2 34 -13 34 -10 0 -13 -6 -9 -16 3 -9
2 -12 -5 -9 -6 4 -8 13 -5 20 2 7 -2 16 -10 19 -8 3 -14 10 -14 16 0 18 30 10
55 -15z m-20841 -8 c-5 -13 -10 -14 -26 -6 -17 9 -18 8 -9 -10 8 -13 8 -22 1
-26 -6 -4 -7 -12 -4 -18 4 -7 -2 -4 -12 6 -15 14 -16 20 -6 26 7 4 10 15 7 24
-5 11 1 16 22 19 35 4 35 4 27 -15z m-68 -110 c-12 -26 -16 -28 -17 -12 -1 11
-1 28 -1 38 1 11 -2 15 -9 12 -6 -4 -5 2 2 13 13 21 13 21 27 1 12 -17 12 -25
-2 -52z m-28 -29 c-3 -29 -6 -33 -28 -30 -24 4 -24 3 -5 -12 20 -14 20 -15 1
-33 -18 -17 -18 -17 -7 5 10 18 9 22 -4 22 -9 0 -13 -4 -10 -10 3 -5 1 -10 -5
-10 -7 0 -7 -6 1 -22 10 -18 8 -24 -12 -40 -13 -11 -19 -17 -12 -14 7 4 6 -5
-4 -24 -11 -22 -20 -30 -32 -25 -12 5 -13 3 -4 -6 14 -14 6 -39 -12 -39 -10 0
-11 9 -5 35 4 19 6 35 3 35 -2 0 -1 5 2 10 5 8 11 7 20 0 11 -10 13 -8 10 9
-4 23 54 143 66 136 4 -3 13 3 20 12 10 11 10 14 2 9 -9 -5 -11 -2 -7 8 11 28
25 17 22 -16z m21011 20 c10 3 12 0 8 -12 -4 -9 -3 -15 2 -12 11 7 23 -22 15
-35 -3 -5 0 -8 7 -7 7 2 17 -10 23 -27 6 -16 16 -34 23 -40 6 -5 13 -17 15
-25 2 -8 10 -21 18 -28 13 -12 13 -13 -2 -8 -11 3 -15 1 -12 -8 7 -17 -12 -30
-21 -16 -4 6 -2 17 4 24 14 17 2 29 -16 15 -13 -11 -17 -1 -16 38 1 7 -3 11
-7 8 -8 -5 -25 18 -65 89 -30 53 -31 60 -7 48 9 -5 23 -7 31 -4z m132 -220 c1
-7 1 -23 2 -36 0 -19 2 -20 16 -10 9 7 13 9 9 4 -4 -5 2 -20 12 -34 11 -13 20
-30 20 -38 0 -7 3 -14 8 -16 10 -4 82 -124 82 -136 0 -5 7 -15 16 -23 8 -7 13
-21 11 -30 -3 -10 -2 -17 2 -16 3 1 7 -2 8 -7 1 -5 6 -12 11 -15 5 -3 1 -14
-9 -25 -17 -18 -18 -17 -35 20 -10 22 -18 44 -18 49 -1 6 -8 15 -17 22 -9 7
-22 27 -30 45 -7 18 -15 35 -19 38 -9 8 -40 59 -40 65 0 4 4 4 8 1 5 -3 9 1 9
9 0 10 -4 12 -13 5 -8 -8 -17 1 -33 31 -12 23 -20 44 -17 47 3 3 -2 11 -11 17
-15 11 -15 15 -4 29 16 19 31 21 32 4z m-16365 -67 c-3 -5 1 -14 9 -21 21 -18
18 -47 -6 -60 -23 -13 -70 -5 -81 13 -9 16 21 70 36 64 7 -3 19 -1 27 4 18 11
22 11 15 0z m12764 -42 c0 -5 3 -8 8 -8 19 3 25 -2 12 -11 -9 -6 -10 -10 -3
-10 6 0 15 5 18 10 3 6 13 10 21 10 8 0 12 -4 9 -10 -3 -5 6 -12 19 -16 22 -5
24 -9 15 -26 -9 -16 -7 -20 10 -25 22 -5 37 -36 26 -53 -3 -5 0 -10 7 -11 10
0 10 -2 1 -6 -7 -2 -13 -12 -13 -21 0 -15 2 -15 10 -2 6 10 10 11 10 3 0 -18
-4 -28 -11 -26 -3 1 -6 -4 -6 -12 0 -8 7 -11 15 -7 11 4 10 -1 -4 -15 -10 -11
-22 -18 -26 -16 -4 2 -10 -2 -14 -8 -4 -7 -3 -9 3 -6 6 4 13 -2 16 -12 5 -22
-19 -37 -27 -18 -2 7 -5 2 -5 -10 -1 -25 -16 -39 -26 -23 -3 5 -14 10 -23 10
-15 0 -15 -2 -2 -10 13 -9 13 -10 0 -11 -10 0 -9 -3 5 -10 15 -7 13 -8 -12 -3
-17 3 -34 0 -38 -5 -3 -6 -12 -11 -18 -11 -7 0 -6 4 3 10 8 5 10 10 5 10 -6 0
-16 -5 -23 -12 -9 -9 -13 -7 -18 5 -5 13 -10 14 -25 6 -15 -8 -19 -6 -19 8 0
11 -3 14 -8 7 -11 -17 -41 -13 -34 4 3 10 1 13 -7 8 -6 -4 -11 -4 -10 1 4 21
-2 33 -16 33 -8 0 -17 11 -21 25 -3 14 -10 25 -15 25 -5 0 -9 7 -9 15 0 8 4
15 10 15 5 0 7 7 4 15 -4 8 -10 13 -14 10 -5 -3 -12 0 -16 7 -4 7 -4 10 1 6 4
-4 14 -1 21 7 20 19 17 24 -8 19 -16 -3 -15 -1 5 7 26 10 27 12 10 26 -10 8
-12 12 -5 8 7 -4 16 3 21 17 6 13 10 19 10 15 1 -5 6 -5 12 -1 8 4 7 9 -2 15
-10 6 -8 9 9 9 13 0 21 3 19 8 -3 4 1 13 9 20 8 7 14 10 14 5 0 -4 7 2 15 13
14 18 14 18 10 -4 -2 -12 0 -20 6 -17 5 4 9 14 10 23 0 11 3 12 6 5 2 -7 14
-13 25 -13 13 0 18 5 15 14 -4 10 0 12 14 9 10 -3 19 -9 19 -14z m-18200 -34
c11 -13 10 -14 -4 -9 -9 3 -16 10 -16 15 0 13 6 11 20 -6z m22190 -354 c36
-36 46 -73 30 -112 -18 -43 -56 -69 -101 -69 -75 0 -128 80 -99 151 17 41 47
59 98 59 35 0 49 -6 72 -29z m-6145 -333 c31 -14 33 -51 4 -72 -45 -31 -95 37
-51 70 21 16 16 16 47 2z m8523 -104 c4 -27 -20 -37 -44 -19 -16 11 -16 15 -5
29 19 22 45 16 49 -10z m4447 8 c-3 -3 -11 0 -18 7 -9 10 -8 11 6 5 10 -3 15
-9 12 -12z m46 -110 c-7 -2 -18 1 -23 6 -8 8 -4 9 13 5 13 -4 18 -8 10 -11z
m36 -33 c2 -16 1 -18 -11 -7 -8 7 -10 15 -5 16 5 2 6 9 2 15 -3 7 -2 9 2 4 5
-4 10 -17 12 -28z"/>
<path d="M10720 19630 c-9 -6 -10 -10 -3 -10 6 0 15 5 18 10 8 12 4 12 -15 0z"/>
<path d="M10464 19371 c-86 -37 -85 -175 2 -216 47 -22 99 -13 134 26 69 73
27 186 -72 195 -24 2 -53 0 -64 -5z"/>
<path d="M12795 19311 c-3 -5 -2 -12 3 -15 5 -3 9 1 9 9 0 17 -3 19 -12 6z"/>
<path d="M24567 19199 c7 -7 15 -10 18 -7 3 3 -2 9 -12 12 -14 6 -15 5 -6 -5z"/>
<path d="M24665 19040 c-3 -5 -1 -10 4 -10 6 0 11 5 11 10 0 6 -2 10 -4 10 -3
0 -8 -4 -11 -10z"/>
<path d="M12886 18917 c3 -10 9 -15 12 -12 3 3 0 11 -7 18 -10 9 -11 8 -5 -6z"/>
<path d="M30608 17802 c-218 -4 -199 12 -380 -312 -17 -30 -50 -86 -73 -125
-23 -38 -62 -106 -87 -150 -25 -44 -55 -96 -66 -115 -10 -19 -97 -169 -191
-333 l-172 -299 15 -33 c20 -42 20 -59 0 -101 -16 -34 -16 -35 19 -92 19 -31
56 -97 82 -147 26 -49 52 -97 58 -105 7 -8 17 -24 23 -35 12 -23 243 -423 374
-650 48 -82 100 -173 116 -202 25 -45 33 -53 67 -59 38 -6 65 -25 84 -58 8
-15 73 -17 761 -18 676 -1 753 0 769 15 10 8 30 20 44 25 19 8 57 65 154 234
71 122 194 336 273 473 199 344 330 576 338 599 6 15 4 17 -6 11 -10 -6 -12
-4 -7 7 3 9 0 21 -6 28 -9 10 -9 11 3 5 12 -6 13 -5 3 5 -12 13 -2 47 19 61
11 7 -94 195 -457 824 l-271 469 -38 3 c-40 2 -81 31 -91 64 -6 17 -38 18
-603 16 -328 -1 -668 -3 -754 -5z"/>
<path d="M33066 16352 c-70 -3 -95 -16 -100 -50 -3 -18 -33 -23 -53 -9 -6 4
-14 3 -19 -4 -5 -8 -3 -9 6 -4 8 5 11 4 6 -3 -4 -6 -12 -9 -19 -7 -13 5 -78
-102 -487 -810 -257 -443 -272 -473 -274 -523 -1 -52 3 -60 369 -695 369 -637
372 -642 405 -645 40 -4 86 -34 95 -62 6 -20 18 -20 729 -20 l723 0 13 26 c18
32 44 47 98 54 l43 5 171 295 c94 162 260 450 370 640 242 417 236 394 143
548 -48 79 -191 325 -243 417 -6 11 -108 190 -227 398 -197 342 -219 377 -242
377 -17 0 -39 14 -64 40 l-38 40 -668 -2 c-368 -1 -699 -4 -737 -6z"/>
<path d="M28122 13463 l-134 -4 -33 -34 c-31 -33 -44 -39 -90 -36 -16 1 -44
-42 -140 -211 -66 -116 -136 -239 -156 -272 -19 -34 -69 -119 -110 -191 -42
-71 -138 -237 -214 -368 -130 -226 -138 -242 -139 -295 -2 -53 3 -65 57 -157
33 -55 72 -125 87 -155 24 -47 250 -443 351 -615 16 -27 87 -149 157 -270
l127 -220 824 0 823 0 145 250 c140 242 303 524 520 901 103 179 103 181 88
210 -19 37 -19 67 0 104 15 30 15 31 -121 267 -415 720 -607 1048 -615 1051
-6 2 -23 15 -38 28 l-29 24 -613 -2 c-338 -1 -674 -4 -747 -5z"/>
<path d="M24970 18510 c0 -6 4 -10 9 -10 5 0 12 -8 14 -17 4 -14 5 -13 6 3 0
12 -6 24 -14 28 -8 3 -15 1 -15 -4z"/>
<path d="M25035 18391 c-3 -5 -1 -12 5 -16 5 -3 10 1 10 9 0 18 -6 21 -15 7z"/>
<path d="M13005 18710 c3 -5 8 -10 11 -10 2 0 4 5 4 10 0 6 -5 10 -11 10 -5 0
-7 -4 -4 -10z"/>
<path d="M12920 18455 c0 -8 2 -15 4 -15 2 0 6 7 10 15 3 8 1 15 -4 15 -6 0
-10 -7 -10 -15z"/>
<path d="M12620 17931 c0 -6 4 -13 10 -16 6 -3 7 1 4 9 -7 18 -14 21 -14 7z"/>
<path d="M12390 17510 c0 -5 5 -10 11 -10 5 0 7 5 4 10 -3 6 -8 10 -11 10 -2
0 -4 -4 -4 -10z"/>
<path d="M12085 17102 c-55 -19 -85 -60 -85 -120 0 -37 6 -50 34 -78 29 -29
41 -34 81 -34 40 0 52 5 81 34 27 27 34 42 34 75 0 72 -31 112 -95 124 -17 3
-39 2 -50 -1z"/>
<path d="M3575 14550 c4 -6 11 -8 16 -5 14 9 11 15 -7 15 -8 0 -12 -5 -9 -10z"/>
<path d="M3840 14099 c0 -5 5 -7 10 -4 6 3 10 8 10 11 0 2 -4 4 -10 4 -5 0
-10 -5 -10 -11z"/>
<path d="M4205 13960 c-3 -5 -1 -10 4 -10 6 0 11 5 11 10 0 6 -2 10 -4 10 -3
0 -8 -4 -11 -10z"/>
<path d="M1040 8203 c8 -3 22 -11 30 -17 13 -10 13 -9 1 7 -7 9 -21 17 -30 16
-13 0 -14 -1 -1 -6z"/>
<path d="M1116 8181 c-3 -5 1 -11 9 -14 9 -4 12 -1 8 9 -6 16 -10 17 -17 5z"/>
<path d="M786 8161 c-3 -5 1 -14 9 -21 13 -11 14 -10 9 5 -5 12 -4 16 4 11 6
-3 13 -2 17 4 3 5 -3 10 -14 10 -11 0 -22 -4 -25 -9z"/>
<path d="M1250 7976 c0 -2 7 -7 16 -10 8 -3 12 -2 9 4 -6 10 -25 14 -25 6z"/>
<path d="M700 7906 c0 -2 7 -6 15 -10 8 -3 15 -1 15 4 0 6 -7 10 -15 10 -8 0
-15 -2 -15 -4z"/>
<path d="M716 7843 c-6 -14 -5 -15 5 -6 7 7 10 15 7 18 -3 3 -9 -2 -12 -12z"/>
<path d="M1161 7704 c0 -11 3 -14 6 -6 3 7 2 16 -1 19 -3 4 -6 -2 -5 -13z"/>
<path d="M18613 6625 c0 -8 4 -12 9 -9 4 3 8 9 8 15 0 5 -4 9 -8 9 -5 0 -9 -7
-9 -15z"/>
<path d="M17736 5102 c-3 -5 1 -9 9 -9 8 0 12 4 9 9 -3 4 -7 8 -9 8 -2 0 -6
-4 -9 -8z"/>
<path d="M16650 4195 c0 -7 30 -13 34 -7 3 4 -4 9 -15 9 -10 1 -19 0 -19 -2z"/>
<path d="M16855 4189 c-4 -6 -5 -12 -2 -15 2 -3 7 2 10 11 7 17 1 20 -8 4z"/>
<path d="M16960 4196 c0 -3 9 -10 20 -16 11 -6 20 -8 20 -6 0 3 -9 10 -20 16
-11 6 -20 8 -20 6z"/>
<path d="M17185 4190 c-3 -5 -12 -7 -20 -3 -8 3 -15 3 -15 0 0 -13 30 -14 40
-1 7 8 10 14 7 14 -3 0 -8 -4 -12 -10z"/>
<path d="M16880 4178 c0 -4 12 -8 27 -8 14 0 23 3 19 7 -10 10 -46 11 -46 1z"/>
<path d="M5253 4995 c-36 -16 -73 -68 -73 -103 0 -37 28 -86 59 -105 86 -51
191 17 178 115 -6 46 -29 75 -74 94 -40 17 -49 17 -90 -1z"/>
<path d="M4790 3989 c0 -5 5 -7 10 -4 6 3 10 8 10 11 0 2 -4 4 -10 4 -5 0 -10
-5 -10 -11z"/>
<path d="M4680 3801 c0 -6 4 -13 10 -16 6 -3 7 1 4 9 -7 18 -14 21 -14 7z"/>
<path d="M4675 3761 c-3 -5 -1 -12 5 -16 5 -3 10 1 10 9 0 18 -6 21 -15 7z"/>
<path d="M4611 3664 c0 -11 3 -14 6 -6 3 7 2 16 -1 19 -3 4 -6 -2 -5 -13z"/>
<path d="M16275 3629 c-9 -14 -2 -20 14 -10 8 6 9 11 3 15 -6 3 -14 1 -17 -5z"/>
<path d="M16211 3514 c0 -11 3 -14 6 -6 3 7 2 16 -1 19 -3 4 -6 -2 -5 -13z"/>
<path d="M15795 2820 c-3 -6 1 -7 9 -4 18 7 21 14 7 14 -6 0 -13 -4 -16 -10z"/>
<path d="M15568 2674 c-54 -29 -74 -109 -41 -165 51 -86 185 -68 214 30 29 98
-82 185 -173 135z"/>
<path d="M4587 2545 c3 -8 9 -12 14 -9 12 7 11 11 -5 17 -10 4 -13 1 -9 -8z"/>
<path d="M6376 2292 c-3 -5 1 -9 9 -9 8 0 12 4 9 9 -3 4 -7 8 -9 8 -2 0 -6 -4
-9 -8z"/>
<path d="M4190 1882 c0 -5 7 -13 16 -16 10 -4 14 -1 12 6 -5 15 -28 23 -28 10z"/>
<path d="M24910 1299 c0 -5 5 -7 10 -4 6 3 10 8 10 11 0 2 -4 4 -10 4 -5 0
-10 -5 -10 -11z"/>
<path d="M25145 921 c-3 -5 -2 -12 3 -15 5 -3 9 1 9 9 0 17 -3 19 -12 6z"/>
<path d="M25160 890 c-9 -6 -10 -10 -3 -10 6 0 15 5 18 10 8 12 4 12 -15 0z"/>
<path d="M21510 986 c0 -2 7 -7 16 -10 8 -3 12 -2 9 4 -6 10 -25 14 -25 6z"/>
<path d="M27519 19948 c299 -522 348 -603 368 -606 12 -2 29 -12 39 -23 17
-18 37 -19 770 -19 l753 0 12 23 c17 33 51 57 81 57 33 0 27 -10 213 315 75
132 146 255 157 273 l20 32 -1222 0 -1221 0 30 -52z"/>
<path d="M32702 19670 c104 -181 196 -330 202 -330 7 0 21 -9 31 -20 18 -20
31 -20 781 -20 l763 0 15 28 c15 30 46 49 85 54 20 3 47 43 163 248 76 134
138 249 137 255 0 5 -3 4 -6 -2 -8 -21 -22 -15 -16 7 3 12 2 20 -3 18 -10 -3
-60 30 -56 37 7 15 0 35 -14 35 -8 0 -12 5 -9 10 4 7 -375 10 -1128 10 l-1135
0 190 -330z"/>
<path d="M13129 19883 c-13 -16 -12 -17 4 -4 16 13 21 21 13 21 -2 0 -10 -8
-17 -17z"/>
<path d="M3700 19880 c-9 -6 -10 -10 -3 -10 6 0 15 5 18 10 8 12 4 12 -15 0z"/>
<path d="M4218 19863 c7 -3 16 -2 19 1 4 3 -2 6 -13 5 -11 0 -14 -3 -6 -6z"/>
<path d="M10784 19742 c3 -5 0 -13 -6 -15 -9 -4 -10 -6 -1 -6 17 -1 25 16 12
25 -7 4 -9 3 -5 -4z"/>
<path d="M418 19729 c-7 -5 -49 -8 -93 -8 -44 0 -135 0 -202 0 l-123 -1 0
-1420 0 -1420 168 -1 c340 -2 340 -2 369 21 14 11 33 20 42 20 9 0 24 15 35
33 10 17 64 111 119 207 55 96 105 178 110 181 5 3 7 8 6 10 -2 2 14 32 34 67
20 35 37 66 37 69 0 4 6 14 14 22 8 9 27 39 42 67 47 84 122 216 148 259 13
22 67 114 119 205 l94 165 -18 24 c-26 32 -25 101 1 133 11 14 15 29 10 34 -4
5 -22 34 -38 65 -16 30 -77 136 -135 235 -57 98 -141 244 -187 324 -90 158
-143 250 -270 467 l-82 141 -44 7 c-31 4 -50 15 -69 36 -14 17 -25 34 -25 37
0 13 -48 29 -62 21z"/>
<path d="M4222 19703 c1 -5 -4 -19 -11 -33 -8 -14 -10 -22 -6 -18 5 4 14 3 22
-4 9 -7 13 -8 11 -1 -2 6 0 11 5 12 4 1 7 -1 7 -4 0 -3 0 -10 0 -16 0 -6 -6
-9 -14 -6 -8 3 -29 -6 -48 -20 -18 -14 -26 -23 -18 -21 15 5 70 -17 70 -28 0
-3 -5 -2 -12 2 -24 15 -76 14 -82 -1 -3 -9 -2 -13 4 -10 15 9 12 -1 -10 -37
-11 -18 -20 -28 -20 -21 0 6 -8 11 -18 10 -10 0 -19 -6 -19 -13 0 -7 6 -10 14
-7 7 3 13 0 13 -7 0 -6 4 -9 9 -6 5 3 12 -1 15 -9 4 -12 2 -13 -12 -6 -9 5
-31 7 -47 4 -21 -3 -26 -2 -17 5 11 7 11 10 -2 15 -12 5 -16 0 -17 -21 -1 -15
-1 -33 0 -41 2 -11 0 -11 -12 0 -8 8 -12 21 -10 29 3 10 -1 8 -11 -4 -9 -11
-16 -24 -16 -29 0 -5 -7 -4 -15 3 -8 7 -12 17 -9 22 4 6 9 6 14 -2 5 -7 8 -2
8 14 l0 26 -19 -21 c-11 -12 -19 -26 -19 -31 0 -5 -7 -2 -16 6 -8 9 -12 22 -9
28 4 7 0 5 -8 -4 -14 -18 -33 -25 -23 -9 3 4 -1 16 -8 26 -10 14 -15 15 -21 5
-5 -8 -4 -11 3 -6 6 4 10 -1 9 -13 -1 -15 -8 -19 -30 -17 -16 1 -32 8 -37 15
-6 10 -10 7 -15 -10 -4 -13 -11 -26 -15 -29 -9 -7 -76 -120 -275 -465 -92
-159 -184 -319 -205 -355 -21 -36 -61 -105 -90 -155 -46 -77 -53 -98 -54 -145
-1 -58 11 -82 344 -655 32 -55 89 -154 127 -220 39 -66 114 -197 168 -291 l98
-172 41 -5 c31 -4 49 -15 72 -41 l31 -36 720 0 720 0 13 25 c17 31 73 58 108
51 23 -5 30 -1 48 31 18 34 125 219 327 568 38 66 142 248 231 405 203 356
199 330 83 530 -44 74 -145 250 -226 390 -81 140 -192 332 -246 425 -54 94
-106 184 -115 200 -67 118 -75 128 -105 132 -19 2 -42 17 -61 38 l-31 35 -642
0 c-352 0 -640 -3 -639 -7z m18 -92 c0 -6 -5 -13 -12 -17 -7 -5 -8 -3 -3 6 6
10 3 12 -13 8 -12 -4 -20 -2 -16 3 7 12 44 12 44 0z m-60 -56 c0 -8 -2 -15 -4
-15 -2 0 -6 7 -10 15 -3 8 -1 15 4 15 6 0 10 -7 10 -15z m25 6 c3 -5 2 -12 -3
-15 -5 -3 -9 1 -9 9 0 17 3 19 12 6z m-88 -117 c-3 -3 -12 -4 -19 -1 -8 3 -5
6 6 6 11 1 17 -2 13 -5z m-200 -20 c0 -13 -62 -13 -74 1 -5 4 2 5 15 2 12 -3
22 -2 22 2 0 4 8 7 18 7 10 0 19 -5 19 -12z"/>
<path d="M3640 19621 c0 -5 5 -13 10 -16 6 -3 10 -2 10 4 0 5 -4 13 -10 16 -5
3 -10 2 -10 -4z"/>
<path d="M12975 19620 c-3 -5 -1 -10 5 -10 6 0 8 -5 4 -12 -4 -7 -3 -8 5 -4 6
4 9 11 6 16 -3 4 1 11 7 13 8 4 7 6 -4 6 -9 1 -20 -3 -23 -9z"/>
<path d="M35545 19560 c-18 -41 -18 -41 3 -63 l22 -21 0 62 c0 34 -2 62 -3 62
-2 0 -12 -18 -22 -40z"/>
<path d="M35358 19474 c-56 -30 -73 -104 -38 -161 24 -40 50 -54 102 -55 50
-1 88 26 107 76 39 103 -72 194 -171 140z"/>
<path d="M13770 19049 c0 -5 5 -7 10 -4 6 3 10 8 10 11 0 2 -4 4 -10 4 -5 0
-10 -5 -10 -11z"/>
<path d="M25285 17950 c3 -5 8 -10 11 -10 2 0 4 5 4 10 0 6 -5 10 -11 10 -5 0
-7 -4 -4 -10z"/>
<path d="M25460 17775 c-15 -28 -74 -59 -99 -52 -20 5 -8 23 -208 -323 -71
-124 -226 -391 -343 -593 -205 -355 -212 -370 -212 -422 0 -52 7 -67 198 -397
109 -189 273 -473 365 -633 92 -159 183 -307 203 -327 20 -20 36 -42 36 -48 0
-7 237 -10 754 -10 753 0 755 0 751 20 -2 11 0 18 4 15 12 -7 32 20 29 36 -2
9 5 13 20 11 12 -2 22 2 22 7 0 6 5 11 11 11 6 0 18 7 26 16 12 11 18 12 23 4
4 -7 16 -9 28 -6 24 8 105 142 497 820 236 408 248 431 248 480 0 55 3 47
-477 876 -40 69 -121 209 -180 313 -60 103 -114 187 -121 187 -7 0 -24 9 -38
20 -25 20 -40 20 -774 20 l-750 0 -13 -25z"/>
<path d="M13290 17533 c0 -6 8 -17 18 -24 16 -13 16 -13 2 6 -8 11 -16 22 -17
24 -2 2 -3 0 -3 -6z"/>
<path d="M0 15405 l0 -1415 28 -1 c44 -1 495 -1 514 0 9 1 27 20 41 44 50 88
219 380 336 580 66 115 121 210 121 212 0 2 21 39 46 82 26 43 55 92 64 108 9
17 53 93 98 170 73 127 79 141 66 159 -18 26 -18 79 0 115 14 26 13 31 -19 84
-19 31 -45 75 -58 99 -13 24 -98 171 -189 328 -90 157 -231 401 -313 542 -124
214 -155 261 -187 282 l-40 26 -254 0 -254 0 0 -1415z"/>
<path d="M21775 16436 c-65 -29 -91 -95 -61 -158 41 -86 161 -91 210 -8 34 58
5 139 -59 166 -42 17 -51 17 -90 0z"/>
<path d="M12729 16143 c-13 -16 -12 -17 4 -4 9 7 17 15 17 17 0 8 -8 3 -21
-13z"/>
<path d="M12423 15785 c-38 -16 -63 -60 -63 -112 0 -45 20 -77 60 -98 53 -28
120 -11 154 37 21 30 20 102 -1 135 -18 26 -68 53 -100 53 -10 -1 -32 -7 -50
-15z"/>
<path d="M1615 15410 c3 -5 8 -10 11 -10 2 0 4 5 4 10 0 6 -5 10 -11 10 -5 0
-7 -4 -4 -10z"/>
<path d="M1655 15409 c-11 -17 1 -21 15 -4 8 9 8 15 2 15 -6 0 -14 -5 -17 -11z"/>
<path d="M1753 15404 c0 -6 7 -10 16 -9 9 2 20 4 24 4 5 1 6 5 2 10 -8 14 -42
9 -42 -5z"/>
<path d="M2655 15400 c-3 -5 -2 -10 4 -10 5 0 13 5 16 10 3 6 2 10 -4 10 -5 0
-13 -4 -16 -10z"/>
<path d="M27020 15069 c0 -5 5 -7 10 -4 6 3 10 8 10 11 0 2 -4 4 -10 4 -5 0
-10 -5 -10 -11z"/>
<path d="M26938 14833 c7 -3 16 -2 19 1 4 3 -2 6 -13 5 -11 0 -14 -3 -6 -6z"/>
<path d="M1020 4870 c-6 -11 -25 -23 -43 -28 -34 -9 -27 2 -202 -302 -39 -69
-165 -287 -280 -485 -115 -198 -228 -393 -251 -433 -39 -69 -41 -76 -28 -100
18 -36 18 -82 -2 -110 -15 -21 -10 -32 122 -260 75 -130 158 -273 184 -317 26
-44 109 -188 185 -320 242 -421 245 -425 271 -425 13 0 29 -9 36 -20 12 -19
25 -20 760 -20 734 0 747 0 753 20 9 29 59 60 97 60 33 0 36 4 113 138 44 75
88 153 98 172 11 19 31 55 47 80 23 37 178 306 240 415 77 135 217 377 237
409 21 32 23 43 14 63 -14 31 -14 78 0 117 10 29 6 39 -58 151 -336 580 -459
793 -540 935 -53 91 -111 191 -130 223 l-34 57 -789 0 c-776 0 -789 0 -800
-20z"/>
<path d="M30431 3405 c-13 -14 -33 -25 -45 -25 -17 0 -84 -110 -393 -646 -350
-608 -372 -648 -358 -667 19 -28 19 -87 0 -114 -14 -20 -1 -44 221 -430 130
-224 298 -515 373 -645 91 -160 141 -238 153 -238 9 0 30 -11 46 -25 l29 -24
741 -1 c729 0 741 0 747 20 10 32 54 60 94 60 l36 0 364 630 363 631 -15 31
c-15 31 -13 78 5 111 8 15 -13 59 -109 225 -66 114 -209 362 -318 552 -109
190 -228 397 -265 460 l-66 115 -790 2 -789 3 -24 -25z"/>
<path d="M35515 3330 c-10 -32 -54 -60 -95 -60 -29 0 -39 -5 -47 -23 -6 -13
-101 -179 -210 -368 -527 -908 -516 -888 -518 -949 -1 -50 3 -63 51 -145 28
-49 195 -337 369 -640 182 -315 332 -564 351 -583 19 -18 34 -37 34 -42 0 -6
27 -10 60 -10 l60 0 0 1420 0 1420 -24 0 c-16 0 -27 -7 -31 -20z"/>
<path d="M786 1742 c-3 -5 1 -9 9 -9 8 0 12 4 9 9 -3 4 -7 8 -9 8 -2 0 -6 -4
-9 -8z"/>
<path d="M590 1426 c0 -2 7 -7 16 -10 8 -3 12 -2 9 4 -6 10 -25 14 -25 6z"/>
<path d="M3695 1000 c-10 -11 -14 -20 -9 -20 5 0 15 9 22 20 7 11 11 20 9 20
-2 0 -12 -9 -22 -20z"/>
<path d="M3661 954 c0 -11 3 -14 6 -6 3 7 2 16 -1 19 -3 4 -6 -2 -5 -13z"/>
<path d="M3310 569 c0 -5 5 -7 10 -4 6 3 10 8 10 11 0 2 -4 4 -10 4 -5 0 -10
-5 -10 -11z"/>
<path d="M0 275 l0 -275 210 0 c116 0 210 2 210 4 0 13 -261 452 -272 458 -7
3 -31 10 -53 15 -29 6 -45 17 -60 40 -11 18 -23 32 -27 33 -5 0 -8 -124 -8
-275z"/>
<path d="M3657 539 c-9 -6 -15 -14 -12 -20 4 -5 1 -9 -5 -9 -7 0 -10 -7 -6
-15 6 -16 -27 -39 -39 -27 -3 4 -6 3 -5 -3 5 -22 -1 -36 -12 -29 -7 5 -9 0 -6
-14 4 -15 2 -19 -8 -15 -8 3 -14 10 -14 15 0 6 -6 5 -15 -2 -8 -7 -15 -9 -15
-6 0 4 -6 1 -14 -6 -11 -10 -11 -16 -2 -28 9 -13 9 -13 -6 -1 -10 7 -15 17
-12 22 3 5 -3 9 -13 9 -11 0 -25 6 -32 13 -7 6 -11 7 -9 2 2 -6 -6 -20 -17
-32 -27 -29 -239 -382 -233 -388 3 -3 514 -4 1136 -3 l1130 3 -133 230 -133
230 -38 3 c-43 4 -90 33 -99 62 -6 20 -16 20 -688 20 -439 -1 -688 -5 -700
-11z"/>
<path d="M3610 490 c0 -5 5 -10 11 -10 5 0 7 5 4 10 -3 6 -8 10 -11 10 -2 0
-4 -4 -4 -10z"/>
<path d="M30270 400 c0 -5 5 -10 11 -10 5 0 7 5 4 10 -3 6 -8 10 -11 10 -2 0
-4 -4 -4 -10z"/>
</g>
</svg>
